<svg xmlns="http://www.w3.org/2000/svg" width="54.102" height="54.102"><path d="M31.4,24c0,0.1,0,0.1,0,0.2c0,2.4,0,4.7,0,7.1c0,1.4-0.4,2.7-1.2,3.8c-1.2,1.7-2.8,2.7-4.9,2.9
	c-2.8,0.3-5.5-1.2-6.7-3.8c-0.9-1.9-0.9-3.9,0-5.8c1.1-2.3,3-3.6,5.6-3.8c0.4,0,0.8,0,1.2,0c0.1,0,0.1,0.1,0.1,0.2
	c0,1.2,0,2.3,0,3.5c0,0,0,0.1,0,0.1c-0.2,0-0.4-0.1-0.6-0.1c-1.5-0.2-3,0.9-3.3,2.4c-0.4,1.9,1,3.5,2.8,3.6c1.7,0.1,3.2-1.3,3.2-3
	c0-4.8,0-9.5,0-14.3c0-0.3,0-0.2,0.2-0.2c1.1,0,2.1,0,3.2,0c0.2,0,0.2,0,0.2,0.2c0.1,1.8,0.9,3.1,2.4,4.1c0.8,0.5,1.6,0.7,2.5,0.7
	c0.2,0,0.2,0,0.2,0.2c0,1.1,0,2.2,0,3.3c0,0.2,0,0.2-0.2,0.2C34.5,25.5,32.9,25,31.4,24C31.5,24,31.5,24,31.4,24
	C31.4,24,31.4,24,31.4,24z" fill="#e7e5d8"/></svg>
