<svg version="1.1" id="logo-black" xmlns="http://www.w3.org/2000/svg" x="0" y="0" viewBox="0 0 376.3 116.6" xml:space="preserve"><style>.st0{fill:#f2783c}.st1{fill:#272727}</style><g id="Layer_1-2"><g id="Group_14"><path id="Path_1" class="st0" d="M56.3 116.6l2.9-5.8H66l2.9 5.8 2.4-.5-8.6-17.3-8.7 17.3 2.3.5zm3.9-8.1l2.4-4.8 2.4 4.8"/><path id="Path_2" class="st0" d="M75.5 116.5V98.8l10.9 11.9V99.6l2.4-.4v17.3l-10.9-11.9v11.5"/><path id="Path_3" class="st0" d="M93.9 116.4V99.2l2.4-.4v17.4"/><path id="Path_4" class="st0" d="M100.7 116.2l3.4-17.4 5.8 13 5.8-13 3.5 17.4-2.4.3-2-10.7-4.9 10.6-5-10.6-2 10.7"/><path id="Path_5" class="st0" d="M124.4 116.6l2.9-5.8h6.8l2.9 5.8 2.4-.5-8.7-17.3-8.6 17.3 2.3.5zm3.9-8.1l2.4-4.8 2.4 4.8"/><path id="Path_6" class="st0" d="M141.9 101.5l.8-2.2h10v2.2h-4v14.7l-2.4.3v-15"/><path id="Path_7" class="st0" d="M157.5 116.4V99.2l2.4-.4v17.4"/><path id="Path_8" class="st0" d="M164.2 107.7c0 4.9 4 8.9 8.9 8.9s8.9-4 8.9-8.9-4-8.9-8.9-8.9-8.9 3.9-8.9 8.8v.1zm2.4 0c.1-3.6 3.1-6.4 6.7-6.3s6.4 3.1 6.3 6.7c-.1 3.5-3 6.3-6.5 6.3-3.6-.1-6.5-3.1-6.5-6.7"/><path id="Path_9" class="st0" d="M186.8 116.5V98.8l10.9 11.9V99.6l2.4-.4v17.3l-10.9-11.9v11.5"/><path id="Path_10" class="st0" d="M214.7 112.3c.7 1.2 1.9 1.9 3.2 2 1.5.2 2.9-.8 3.1-2.3v-.6c0-3.9-7.8-1.8-7.8-7.7-.1-2.6 2-4.8 4.7-4.9h.6c1.9.1 3.6 1 4.8 2.5l-1.6 1.7c-.8-1.1-2-1.8-3.3-1.9-1.4-.1-2.6.9-2.7 2.3v.3c0 3.5 7.8 1.9 7.8 7.8.1 2.8-2.2 5.1-5 5.2h-.3c-2.1-.1-4-1.1-5.3-2.8"/><path id="Path_11" class="st0" d="M226.2 101.5l.8-2.2h10v2.2h-3.9v14.7l-2.4.3v-15"/><path id="Path_12" class="st0" d="M252.9 98.8v10.8c0 5.2-1.7 7-6 7-4.7 0-6-2.1-6-7V99.2l2.4-.4v12.1c-.2 1.7 1.1 3.3 2.8 3.4h.6c1.8.3 3.4-.9 3.7-2.7V99.2"/><path id="Path_13" class="st0" d="M258 116.2h4.2c4.7.1 8.6-3.7 8.6-8.4s-3.7-8.6-8.4-8.6H258v17zm2.4-14.7h1.8c3.5.1 6.1 3.1 6 6.5-.1 3.3-2.7 5.9-6 6h-1.8"/><path id="Path_14" class="st0" d="M276 116.4V99.2l2.4-.4v17.4"/><path id="Path_15" class="st0" d="M282.7 107.7c0 4.9 4 8.9 8.9 8.9s8.9-4 8.9-8.9-4-8.9-8.9-8.9-8.8 3.9-8.9 8.9c0-.1 0-.1 0 0zm2.4 0c.1-3.6 3.1-6.4 6.7-6.3 3.6.1 6.4 3.1 6.3 6.7-.1 3.5-3 6.3-6.5 6.3-3.6-.1-6.5-3.1-6.5-6.7"/><path id="Path_16" class="st0" d="M306.4 112.3c.7 1.2 1.9 1.9 3.2 2 1.5.2 2.9-.8 3.1-2.3v-.6c0-3.9-7.8-1.8-7.8-7.7-.1-2.6 2-4.8 4.6-4.9h.6c1.9.1 3.6 1 4.8 2.5l-1.6 1.7c-.8-1.1-1.9-1.8-3.2-1.9-1.4-.1-2.6.9-2.7 2.3v.3c0 3.5 7.8 1.9 7.8 7.8.1 2.8-2.2 5.1-5 5.2h-.3c-2.1-.1-4-1.1-5.2-2.8"/><path id="Path_17" class="st1" d="M40.1 41.8c-.3.3-.5.7-.7 1-.2.5-.4.9-.7 1.3-.3.3-.5.6-.6 1 0 .3-.3 1-.5 1.4s-.7.8-.8 1c-.3.7-.6 1.5-.7 2.2-.3 1.4-1.3 4.8-1.5 5.4-.3 1-.6 2-.7 3.1 0 .7-.3.9-.3 1.5-.1.5-.2.9-.4 1.3-.1.6-.1 1.2 0 1.9.2.5-.2.7-.3 1.1-.1.5-.1 1 0 1.4.1.3-.4.8-.4 1.1l.3 1.2c.2.3.2.7.3.4s.4-.5.5-.7c.1-.1.2-.3.3-.5.1-.2.3-.5.5-.6.3-.2.2-.6.4-.9.3-.4.5-.9.7-1.3.1-.2.3-.7.6-.8s.5-.5.4-.9c0-.4.1-.7.3-1 .2-.2.3-.5.3-.8.1-.2.1-.4.4-.5s.4-.6.6-1.2l.4-1.2s0-.4.2-.6c.2-.1.2-.3.2-.5s.1-.4.2-.6c.1-.3.2-.6.4-.9.4-.4.6-.9.6-1.4.1-.5.2-1 .4-1.5.1-.4.2-.8.2-1.2 0-.3.1-.9.2-1.2.1-.3.1-.5.1-.8 0-.2 0-.3.1-.5.2-.2.3-.5.3-.8.1-.4.2-1.2.2-1.9 0-.5 0-1-.1-1.5-.1-.2 0-.8.3-.9s0-.6 0-.6-.3-.5-.3-.8-.3-.6-.5-.7l-.9.5zm6-39.2c.2-.1-.3-.3-.3-.3s-.1-.2-.2-.3-.2-.1-.2-.1c-.1-.1-.1-.2-.1-.3v-.5c0-.1 0-.3.1-.4.2-.1.4-.1.6-.2l.2-.3h.5s.1-.2.3-.2c.2.1.4.1.6.1.3 0 .6-.1.7.1s.2.4.4.4.3 0 .4.1 0 .2.5.5 1.7 1 2.2 1.4c.3.2.5.4.9.5.2.1.2.2.2.3s0 .2.2.3.3.1.3.2.1.2.2.3h.4v.2c0 .1.1.3.2.4.1.1.2.2.4.3.1 0 .3 0 .3.1.2.4.4.7.7 1l1.2 1.2c.5.5.4.8.7.9s.5.1.5.4c.1.5.3.9.7 1.2.4.4.7.8 1 1.3 0 .2 0 .4.2.5s.3.2.3.4.2.3.2.3.4.1.3.2c0 .3 0 .6.1.9 0 0 .4-.3.5-.1s0 .3.1.4c0 .1.1.2.2.2.2.1.3.2.4.4.2.6.5 1.1.9 1.6.3.5 1 1.3 1 1.3.1.1.2.3.2.5 0 .1.1.3.2.4l.6.7c.1.5.3.9.6 1.3s.6.9.9 1.2c.1.1.4.5.3.7s-.2.2 0 .5.8 1.5 1 1.8c.2.3.3.6.4 1 0 .4-.2.7.1.8.3.3.6.7.7 1.2.1.4.3.9.4 1.2s.2.2.2.5c0 .2.1.4.2.6 0 0 .6 1.8.7 2.3s.6 1.4.7 1.7-.2.4 0 .9c.3.5.5 1.1.7 1.6.1.4.2.9.2 1.1s.2 1.5.3 1.9c.1.3.3.7.3 1 0 .3.3 2.1.3 2.8s.1 1.5.1 1.5.2.1.1.4.1 1.4.1 1.8-.1.7-.2 1c.1.4.2.9.2 1.3-.1.4-.1.8-.1 1.1V52c-.1.5-.2.9-.2.9-.1.3-.1.7-.2 1 0 .5.2 1 0 1s-.2.2-.2.4v1c0 .4 0 .8-.1 1.2-.1.2-.2.2-.2.6 0 .7 0 1.3-.2 2s-.2 1.1-.5 2.6-.7 2.6-.7 2.8c0 .3-.1.7-.3 1-.1.2-.5 1-.5 1.2-.3.3-.5.6-.7 1-.2.5-.3 1.1-.4 1.7-.2.4-.4.9-.5 1.4 0 .4-.2.9-.4 1.3-.6.8-1.1 1.6-1.5 2.5-.1.4-.3.7-.5 1.1-.1.3-.4.5-.8 1-.3.3-.5.7-.7 1.1-.4.7-.9 1.3-1.5 1.8-.9.6-1.6 1.5-2.1 2.4-.4.9-.2.8-1 1.3s-1.3.7-1.4.9-.1.4-1.2 1c-.5.3-1.1.5-1.7.6-.4.2-.5.1-.9.4-.5.5-1 1-1.5 1.3-.4.1-.8.2-1.2.1-.7 0-1.5.1-2.2.3-.7.2-1.3.3-2 .4-.3.1-.7.2-.9.2s-.2-.2-.5-.2c-.5 0-1-.1-1.5-.2s-1.2-.1-1.8-.2-1-.4-1.2-.4c-.2-.1-.4-.2-.5-.4 0 0 0-.1-.2-.1s-.8-.1-1-.1-.2-.1-.6-.3c-.3-.1-.5-.3-.7-.5 0 0 0-.2-.2-.1s-.2 0-.3-.1c-.2-.2-.4-.3-.5-.4-.2-.1-.4-.2-.6-.2-.4 0-.7-.1-1-.4-.5-.4-1.1-1-1.3-1.2s-.2-.2-.6-.3-.5-.1-1-.7-1-.9-1.1-1.1-.6-.4-.8-.7-.4-.8-.5-1.2c-.1-.2-.3-.4-.5-.6-.1-.3-.5-.4-.8-.3-.5 0-1 .2-1.5.3-.5.2-.9.4-1.2.7-.2.2 0 .3-.6.3-.5 0-1.1.2-1.5.4-.4.3-.8.6-1.3.8-.3 0-.2-.2-.3-.3-.2-.1-.3-.1-.5-.1l-.6.3s0 .4-.4.4c-.3 0-.6 0-.9.1-.3.1-.9.1-.9 0-.1-.2-.4-.4-.7-.4-.5-.1-.9.1-1.3.4-.2.3-.4.3-.5.2s-.1-.3-.7-.4c-.3 0-.6-.1-.9-.2v-.2l-.6-.3c-.4-.2-.8-.6-1-.4s-.5.2-.7.1c-.3-.2-.5-.3-.9-.4-.3-.1-.7-.1-1-.1 0 0-.4-.4-.2-.6s.4-.5.3-.4c-.3-.1-.7-.2-1-.3 0 0-.6-.1-.4.2s.1.7-.3.1c-.3-.5-.7-.9-1.2-1.2-.2-.1-.4-.3-.5-.5-.8-.3-2.4-2.2-3.2-3.4-.9-1.1-1.7-2.2-2.4-3.3-.2-.8-.5-1.6-.8-2.3-.2-.4-.3-1.1-.5-1.2s-.2-.4-.5-1.3C.6 65.9.4 65 .3 64c.1-.9.1-1.9 0-2.8-.2-.8-.3-1.6-.3-2.4.1-.4.1-.8.2-1.2l.2-.1V56c0-.6.1-1.3.2-1.9 0-.5.1-1.1.1-1.3.1-.1.1-.3.2-.4.1-.8.1-1.9.2-2.2s.2-.9.3-1.1.4-.3.4-.3c.1-.2.2-.3.2-.5v-.9c0-.2.1-.5.2-.7.1-.2.2-.3.3-.3.1 0 .3 0 .4-.1v-.9l-.2-.3c.2-.2.3-.5.4-.7.1-.2.1-.3.2-.5 0 0 0-.6.1-.9.1-.5.3-.9.5-1.3.1-.4.2-.7.2-1.1 0-.3 0-.6.2-.7.4-.4.6-.9.7-1.4.1-.5.3-.9.6-1.2.5-.6.2-.1.2-.1s.9-1.2 1.3-1.8.9-.7.9-1.2.1-.5.5-1 1.1-1.6 1.3-2c.2-.5.5-.9.9-1.3.4-.5.7-.7.7-.8s.1-.5.1-.5c.4-.4.8-.8 1.2-1.1.9-.7 1.3-1.1 1.4-1.5s.5-.4.7-.7 1.4-1.4 2.3-2.3 1-.9 1-.9l.2-.4c.5-.4 1-.7 1.5-1 .2-.1.3-.2.5-.3 0 0-.2 0 .4-.4l1.8-.9c.6-.3 1.2-.5 1.6-.7s1.1 0 1.5-.2c.3-.1.7-.3.9-.5.1-.1.1-.4.6-.4s.7-.1.9-.3.4-.4.6-.4 1 .4 1.2.4.9.4 1.1.1c.2-.2.5-.4.8-.4.2 0 .6.4.7.4 0 .3.1.4.2.5s-.1.2-.2.4-.4.2-.5.2-.2.1-.4.2-.4.2-.6.2c-.3 0-.5.1-1 .2-.6 0-1.2.2-1.8.5-.4.3-.7.7-1 .7-.3 0-.6.2-.7.5-.1.2-.3.4-.5.5-.2.1-.3.2-.4.3-.1.1-.1.3-.4.1s-.7-.2-.6 0-.1.8-.3.9-.9.6-1.1.8-.6.5-.6.7c-.6.5-1.8 1.7-2 1.9-.2.2-.4.4-.6.5-.2.2-.4.4-.4.6-.1.3-.5.4-.9.8-.5.5-.8 1.2-1.1 1.9-.1.5-.4.5-.5.8-.2.5-.4 1-.8 1.4-.6.8-.9.8-1 1.1s0 .4-.2.5-.5.2-.5.3-.3 1-.2 1.1c-.3.6-.5 1.3-.9 1.9-.3.4-.6.8-.9 1.1-.3.5-.5 1.1-.5 1.7-.1.4-.2.7-.4 1.1-.3.3-.5.6-.6.9-.1.4-.2.8-.3 1.3 0 .5-.1 1.1-.3 1.5-.5.5-.8 1.2-1 1.9-.4.7-.4.9-.5 1.2-.2.5-.3 1.1-.3 1.7 0 .4-.2.5-.2.8s-.1 1.1-.2 1.5-.1.7-.3.8c-.1 0-.3.1-.3.2 0 .5 0 .5-.2 2.1s0 3.7-.1 4.2.2.4.1.7c0 .9-.1 1.8-.3 2.7-.1.5-.2 1.1-.3 1.6.1 1 .2 1.9.4 2.9.1.7.3 1.3.5 2 0 .5.1 1 .3 1.5.2.6.4 1.2.7 1.9s.7 1.4.8 1.7c.1.4.2.8.4 1.1.1.1.4.2.5.5s.3 1.1.6 1.2c.2.1.3.2.4.4.3.3.6.5.9.8.4.1.7.4.9.7 0 0 .5.4.6.6 0 0 .7-.1.8.1s.5.2.6.3.5.2.7.4c.3.2.6.2.9.2.3 0 1.1.5 1.4.4.4 0 .7 0 1.1.1.3 0 .7-.1.9-.2.5-.2 1-.3 1.5-.3.7 0 1.4-.2 2-.6.6-.4 1.2-1.2 1.4-1.1s.5-.2.7-.3c.3-.3.6-.5 1-.7.4-.1 1.1-.4.9-.8-.2-.4-.3-.7-.4-1.1-.1-.3-.2-1.5-.4-1.9-.2-.4-.3-.9-.5-1.3-.1-.3-.2-.7-.3-1 0-.2-.1-.5 0-.5s.4-.3.2-.4l-.3-.6c-.1-.5-.2-.9-.2-1.4 0-.5 0-1-.2-1.6-.2-.3-.3-.6-.3-.9.2-.3.3-.7.2-1.1-.1-1-.1-1.9-.1-2.9 0-.3.2-.3.2-.5v-3.3l.3-.9c.2-.7.3-1.5.5-2.2.2-.8.4-1.6.6-2.5.2-.4.4-.9.5-1.3 0-.3.1-.6.2-.9.3-.4.5-.9.7-1.3.1-.4.2-.6.2-.8-.1-.3 0-.7.2-.9.3-.4.5-.8.6-1.3l.2-.9.3-.3c.4-.5.7-1 1-1.5.5-.9 1.1-1.8 1.8-2.6.6-.7 1.3-1.2 2-1.8.3-.2.6-.3.7-.5s.3-.2.5-.3l.6-.3c.2-.1.2 0 .4-.1.3-.1.5-.3.7-.5.1-.2.4-.1.6-.1s.7 0 1 .1c.2 0 .1.4.3.3s.4-.2.5-.3c.5-.1 1 0 1.4.1.5.2.9.3 1.4.3.3-.1.7.1.8.4l.6.6s.5.2.4.6c-.1.4 0 .8.2 1.2.1.2.5.8.3 1.2-.1 1.5-.1 2.9-.1 4.4 0 1.2 0 2.5-.2 3.7-.1.6-.3 1.3-.3 1.9 0 .1-.3.1-.2.5 0 .4-.1.9-.3 1.2-.1.4-.1.9-.1 1.3 0 .3-.7 2-.8 2.5s-.9 2.2-1 2.8c-.1.4-.2.8-.5 1.2-.2.3-.7 1.5-1 2.1s-.4 1.2-.6 1.8c-.2.5-.4.9-.7 1.3-.2.2-.3.4-.3.7 0 .2-.1.4-.2.6-.1.2-.7.9-.6 1.2.1.2 0 .5-.2.6-.4.4-.7.9-.9 1.3-.1.2-.3.5-.3.7s-.3 1.1-.7 1.4-.8.4-1 .8-.9 1.2-1 1.4-.2.4 0 .7c.3.4.5.8.7 1.3.1.5.2 1 .5 1.5.3.6.8.8.8 1.1 0 .5.1 1 .3 1.4.3.3.5.8.7.9.3 0 .5.1.7.3.4.6.9 1.2 1.4 1.8.3.3.7.6 1.1.9.4.3 1.2 1 1.2 1.3s.6.4.6.4c.2 0 .5.1.7.2.2.1.2.3.5.3s1.2.1 1.6.1.6.1 1 .2c.6 0 1.2 0 1.8-.1.6 0 1.1-.2 1.6-.4.3-.3.7-.5 1.1-.6.3 0 .6-.1.8-.3.3-.4.7-.6 1.2-.8.7-.3 1.3-.6 1.9-1.1 1.2-.8.9-.9 1.3-1.4s.5-.9.8-1 .6-.1.7-.3.3-.4.4-.5c.2-.1.3-.3.4-.5.2-.2.4-.3.6-.3.2 0 .3.1.4-.1s.7-1.5.8-1.7.3-.3.4-.5.5-.2.6-.4 0-.4.2-.6c.4-.3.8-.7.9-1.2.4-.9.8-1.7 1.2-2.6.7-1.3.9-1.6.9-2.1s-.1-.6.3-.8c.4-.2.7-.6.7-1.1.1-.5.1-.9.3-1.4.2-.2.2-.7.4-.8.2-.2.4-.5.4-.8-.1-.6 0-1.1.1-1.7.2-.5.6-.7.8-1.1.2-.6.3-1.3.3-2-.1-.4 0-.9.3-1.3.2-.5.1-.9.4-1.5.3-.7.3-1.4.2-2.1-.2-.2-.2-.5 0-.7.2-.2.3-.4.4-.6l.2-.4c.2-.3.3-.6.3-1s.1-.7 0-1.1c-.1-.4 0-.8.2-1.2.1-.2.3-.4.4-.5.2-.2 0-.1-.1-.3v-1.9c-.1-.5-.2-1-.2-1.6.1-.8.1-1.6 0-2.4-.2-1-.3-2-.4-3 .1-1.1 0-2.2-.2-3.2-.1-.5-.2-.9-.5-1.3-.2-.1-.2-.1-.2-.5 0-.6-.2-1.3-.3-1.9-.1-.2-.1-.3-.2-.4-.2-.1-.3-.2-.2-.4 0-.2 0-.2-.1-.6s-.2-.4-.2-.6c-.1-.5-.2-1.1-.3-1.6s-.4-.7-.5-1l-.6-1.8c-.1-.3-.3-.7-.3-1.1-.2-.8-.4-1.6-.7-2.4-.2-.5 0-.6-.3-1-.2-.3-.4-.5-.7-.7-.3-.2-.7-.7-.6-1s.2-.5-.3-1.1c-.3-.4-.5-.9-.7-1.4-.1-.2-.2-.4-.4-.6-.3-.2-.4-.5-.4-.8-.1-.6-.4-1.2-.7-1.6-.2-.3-.4-.5-.6-.7-.2-.1-.3-.1-.3-.5s.1-1 0-1.2-.2-.1-.3-.2-.5 0-.5-.2c0-.4-.1-.8-.3-1.1l-.6-.6c-.3-.2-.6-1-1-1.4s-.6-.5-.7-.6c-.1-.2-.1-.3-.2-.5-.2-.4-.5-.7-.8-1-.4-.3-.8-.7-.8-.7s-.2-.6-.4-.8-.3 0-.4-.4c-.1-.4-.3-.8-.6-1.2-.3-.3-.6-.6-1-.8-.2-.2-.5-.3-.5-.5s-.3-.4-.3-.4l-.7-.3c-.3-.1-.5-.2-.7-.3-.2-.1-.4-.3-.6-.5-.1-.2-.3-.3-.5-.3-.1 0-.3 0-.4-.1-.1-.2-.3-.2-.5-.2-.3 0-.3.1-.4 0s-.2-.2-.5-.2-.4.1-.4.3-.2.8-.4.6"/><path id="Path_18" class="st1" d="M82.9 68c.4.4 1 1.1 1.5 1.1.4 0 .8 0 1.1.1.4.2.8.2 1.3.2.4-.2 1.7-.4 2-.5.5-.2 1.1-.4 1.6-.6.3-.1.5-.1.4-.9s-.3-2.6-.6-3.3c-.3-.8-.5-1.6-.6-2.5 0-.6-.1-1.2-.3-1.7-.1-.4-.2-.8-.3-1.1s-.2-.8-.4-1.2c-.1-.5-.2-1-.2-1.5 0 0 0-.6-.2-.5s-.3.3-.6.4-.4.1-.4.3c0 .3-.2.6-.3.9-.3.4-.5.8-.7 1.3-.1.3-.2.7-.4.9-.4.5-.6 1.1-.8 1.7-.1.5-.9 2.1-1 2.8-.2.9-.5 1.7-.8 2.6-.2.4-.3.9-.3 1.5zm-10.8-2s.5.4.9.8.6.4.8.6l.9.6c.4.2.9.2 1.4.2.5 0 .7-.6.7-.9s.2-.4.6-.6.3-.4.3-.7c.1-.3.3-.6.5-.8.2-.2 0-.9 0-1.1.2-.4.4-.9.6-1.3.2-.7.4-1.4.5-2.1.1-.6.1-.9.3-1 .2-.3.3-.6.3-.9 0-.3 0-.7.3-.8s.4-.8.4-1.2.6-1.3.6-1.6c0-.3.3-.6.6-.7.3-.1.3-.3.4-.6.2-.4.3-.8.3-1.2 0-.3.3-.6.5-.9.3-.4.5-.8.6-1.2.1-.4.3-.3.5-.7.2-.2.3-.5.3-.8l.5-.3c.2-.2 0-.3.2-.5.5-.7.9-1.4 1.2-2.2.4-.9.7-.6 1.4-.7.3-.1.7 0 .9.2.3.2.7.4 1.1.6.6.2.7.3.7.3s.2.3.4.3.3.1.5.5c.1.2.3.3.5.4.2.1.2.5.4 1.1.2.9.3 1.9.3 2.8.1.9.4 1.8.6 2.6.2.6.4 1.1.7 1.6.1.2.1.4 0 .5 0 0 .1.5.2.8.1.3.3.6.4.9 0 .2.3 1.4.5 2.2s.3 2 .5 2.8c-.2 0-.2.9-.2 1.4.2.6.4 1.1.6 1.7.1.3.4.4.6.3h.7c.2.1.3.2.5.3.2 0 .4.1.4.3 0 0 0 .4-.2.5s-.4.5-.5.7c-.2.3-.4.6-.7.9l.2.7v1.5c.1.3.2.5.4.8.1.2.1.4-.1.6 0 .4 0 .8.2 1.1.1.4.2.9.2 1.4.1.4.2.8.3 1.1.1.2.2.5.2.7-.1.4-.1.8-.1 1.2.1.6.1 1.7.2 1.9s.3.6.2.8c-.2.3-.2.7-.2 1 .1.2.3.4.4.6-.1.2 0 .5.2.7.3.3-.3.3-.5.3-.3-.1-.7-.1-1-.1-.2-.4-.6-.4-.9-.4-.3.1-.4-.3-.4-.5 0-.1-.1-.3-.2-.3l-.4.3c-.2 0-.4-.1-.6-.1-.2-.1-.8-.2-1-.2s-.1-.4-.2-.6 0-.7-.1-1c-.2-.4-.3-.9-.3-1.3-.4-.7-.6-1.4-.7-2.2-.1-.5-.2-2.6-.2-3.4s-.2-.7-.6-1-.3-.5-.5-.8-.5.3-.7.3h-1.6c-.5 0-1.7.2-2.2.3s-.5-.2-.7-.3-.7 0-1 .1-.2-.4-.2-.4h-.6c-.3.1-.7.2-1 .4l-.9.3c-.3.1-.4 1.6-.5 1.9s-.2 1.3-.4 1.7c-.2.4-.2.9-.1 1.3 0 .4-.1.9-.2 1.3 0 .2-.4.5-.6.7 0 .2.1.5.1.7.1.3-.3.7-.3 1.1 0 .2 0 .4-.1.7-.2.6-.4 1.2-.5 1.8-.2.9-.5.9-.5.9l-.5.3-.9-.3c-.3-.1-.7-.7-.7-.7l-.2.3c-.2.1-.5.1-.7 0-.3-.1-.6-.2-.8-.2-.3-.1-.6-.2-.8-.3 0 0-.1-.9-.1-1.2v-1.4c0-.5 0-1 .2-1.4 0-.3-.1-.6-.3-.8-.2-.2.2-.6.4-.9.1-.2.1-.5 0-.7-.1-.2-.1-.4-.1-.6.1-.3.2-.7.2-1.1.1-.5.1-1 .1-1.5 0-.3 0-.6.2-.8s.2-.6.2-.9c.1-.5.2-1 .4-1.4.1-.2.1-.4.1-.6 0 0-.7-.1-.9-.1s-.6-.4-.8-.7c-.2-.3-.5-.6-.9-.8-.3-.1-.6-.9-.8-1l-.6-1.2c-.2-.3-.4-.8-.2-1"/><path id="Path_19" class="st1" d="M108.5 48.3h.5s-.1-.3.5-.4c.5-.1 1.1-.1 1.6-.1.3.1.6.3.9.5.2.2.4.3.7.4l.3.4c.2.2.3.5.3.7-.1.5-.3 1.1-.5 1.5-.2.3-.3.6-.4 1 0 .3-.1.6-.2.9-.2.5-.3 1-.3 1.5 0 .3 0 .5-.2.8-.2.3-.3.7-.3 1.1 0 .3-.2.5-.5 1.3s-.5 1.3-.4 1.5.3.7.1.7-.2.2-.3.9c-.2.7-.3 1.5-.3 2.3 0 .4-.1.8-.3 1.2-.2.5-.3 1-.3 1.4-.1.3.1 1.3-.1 1.2s-.2.9-.3 1.5c-.2.5-.2 1-.2 1.6.1.4.1.7 0 1.1 0 .5 0 1 .1 1.5.1.4.5 2.1.7 2.5s.5.4.5.8 0 .7.4.9.5.1.9.4-.1.5.3.4.6-.3.8-.3 1-.2 1.2-.2c.3 0 .5-.1.7-.3.3-.2 1-.3 1.4-.7s1.9-1.6 1.9-1.6.1.1.3-.1c.4-.4.8-.8 1.3-1.2.5-.3 1-.7 1.4-1.2.3-.5.7-1 1.1-1.4.1-.2.2-.4.2-.6l.3-.3.7-.7.5-.4s.4.2.3.4c0 .3-.1.5-.2.8-.1.3-.3.5-.6.8 0 0-.1.3-.2.5s-.3.3-.4.6.3.4-.2.7-.8.6-.8.9-.3.4-.4.6-.4.4-.9.9-.6.9-.8 1-.5.3-.5.5.3.3 0 .4c-.3.1-.6.3-.8.5-.3.3-.4.6-.6.8s-.3.1-.7.3l-1.2.9c-.4.3-.7.2-1.1.6-.4.4-.9.8-1.5 1-.6.3-.7 0-1.1.1-.3.1-.7.2-1 .3-.2.1-.6 0-.8 0-.2-.1-.5-.1-.7-.2-.4-.1-.8-.2-1.3-.2-.4.1-.6.1-1-.2-.2-.2-.5-.4-.7-.4-.3 0-1.1-.2-1.3-.3-.2-.1-.3-.2-.4-.3-.1-.1-.2-.2-.4-.3-.3-.2-.4-.7-.6-1s-.3-1-.5-1.1-.3-.7-.3-1c0-.5-.1-.9-.2-1.4-.1-.4-.2-.8-.2-1.2 0-.3-.2-1.3-.2-1.5v-1c-.1-.3-.2-.7-.2-1.1.1-.2.1-.5 0-.7 0-.3.3-.7.3-.9s-.2-1.1-.3-1.4c0-.5.2-1.1.3-1.6 0-.2.2-1.6.1-1.9.1-.6.3-1.3.5-1.9.2-.8.5-1.7.6-2.1.1-.6.1-1.2.3-1.7.1-.4.3-.7.5-1.1.1-.2.1-.9.3-.9s.4-.5.7-1.5.8-2.3 1-2.8.7-1.5.9-2.1c.2-.5.4-.9.7-1.3"/><path id="Path_20" class="st1" d="M136.9 53.7s1 0 1.2-.2c.2-.2.5-.4.8-.4.5-.2 1.2-.5 1.2-.5.1-.2.3-.2.5-.3.2 0 .5.2.6 0 0-.3.2-.6.4-.9.4-.4.8-.8 1.1-1.2.2-.5.3-1.1.1-1.7-.1-.4-.3-.8-.6-1-.3-.2-.7-.2-1-.1-.4.1-.7-.1-1.1.1s-.5.2-.6.5-.5.3-.6.5c-.2.2-.3.4-.5.7-.1.4-.3.8-.5 1.1-.2.3-.3.4-.3.6-.1.3-.2.6-.4.9-.1.3-.3.6-.5.9 0 .1-.6 1.3.2 1zm-16.5-4.9c.5 0 .9.2.9.5s0 .2.1.4.3.4.5.5c.2.1.4.3.5.5.3.2.4.7.7.7.5.2.9.5 1.3.8.3.3.6.5 1 .5.7.3.9.5 1.8 1s.2.4.2.4c.2.1.5.1.7.1.3 0 .6-.1.9-.1.2 0 1 .1 1 .1s.6-1.3.8-1.5.3-.3.3-.5c.2-.5.5-.9.8-1.3.4-.5.9-1.1 1.4-1.5 0 0 0-.4.3-.5s.4-.2 1-.9.6-.8 1-1.1.8-.2 1.1-.4c.2-.2.4-.3.7-.4.4-.1.9-.2 1.3-.2s.9-.1 1.3-.2c.5-.2 1.1-.3 1.6-.3.9 0 .4.2.5.4s.4.2.9.3.7.3 1 .4.4.5.6.7.5.4.6.7.4.4.5 1.2c.1.6.1 1.2 0 1.8 0 .3-.3.5-.3.8-.1.3-.2.5-.4.7-.3.3-.6.6-.9 1-.3.5-.7.9-1.2 1.3-.4.3-.9.4-1.3.6l-.5.5c-.2.2-.6 0-.9.2-.4.3-.9.6-1.4.8-.5.2-.7 0-1 .2-.3.1-.7.2-1.1.2-.3 0-1-.2-1.2-.2s-.3.1-.4.3-.1.5-.2.8c-.2.5-.3 1-.3 1.6 0 .8-.2 1.5-.4 2.3 0 .4-.1.9-.2 1.3s-.2.9-.3 1.4c0 .6-.5 3.4-.6 4.8-.1 1-.1 2 0 3 0 .8.1 1.1 0 1.3-.1.4-.2.8-.2 1.2 0 .5 0 1 .1 1.5.1.4-.2.9-.2 1.1-.1.4-.2.8-.2 1.2 0 .5 0 1-.2 1.4 0 .8.1 1.5.4 2.2.2.4.1.8-.1 1.1-.3.3-.2.6.4 1.6s-.2.3.1 1.2-.2.7-.4 1-.6.7-.9 1-.5.1-.8.1c-.3 0-.5 0-.8.1-.2.1-.1-.3-.2-.6s-.8-.5-1.5-1c-.6-.5-1-1.3-1.1-2.1 0-.5 0-1-.1-1.5-.1-.4-.6-1.6-.7-2.5s-.2-2.1-.2-2.1-.5-.3-.1-.6.3-.5.4-.7-.5-.5-.5-.5c-.1 0-.2-.2-.2-.3v-.1c.1-.4.1-.8 0-1.2-.1-.7-.1-1.5 0-2.2.1-.5.1-1.1 0-1.7 0-.3 0-.6.2-.8.2-.5.3-1 .4-1.5.1-.3 0-.6-.2-.8-.2-.1-.2-.2 0-.3s.2-.6.2-1 .3-1.3.3-1.6.2-.3.3-.6.1-.5.1-.7c.1-.4.1-.8.2-1.3 0 0 .1-.5.1-.7.1-.2.2-.3.3-.3 0-.3.1-.6.1-.9s-.1-.4 0-.7.3-.9.4-1.3c.2-.5.3-1 .4-1.5.1-.4.2-.9.4-1.3-.2 0-.4-.1-.6-.2-.2-.2-.4-.1-1.4-.3-.6-.1-1.1-.3-1.6-.6-.7-.5-1.4-.9-2.2-1.2-.8-.3-1.5-.8-2.2-1.3-.7-.4-1-.9-1-1.1s-.6-.8-.7-1.1-.3-.4-.3-.7.5-.7 1.1-.8"/><path id="Path_21" class="st1" d="M172 60.4c-.1-.2.2-.8-.5-.7s-2 .1-2.9.2c-.6 0-1.2.1-1.8.3-.6.2-1.2.3-1.9.2.1 0 0-.3-.5-.1-.3.1-.6.2-.9.4-.2.1-.2.2-.5.1s-.4-.1-.5.1-.1.4-.5.3-.3 0-.9.1c-.3.1-.5.1-.8.3-.2.1-.5.5-1.1.5s-.9.2-1 .4.1.5-.2.4c-.2 0-.3 0-.4.1l-.2.2c-.2 0-.4.1-.5.2l-.5.3s-.4.2-.2.3c.1.1.2.2.2.4-.1.2-.1.4-.5.3s-.4.1-.7.2-.6.4-.9.5c-.3.1-.5.2-.8.1-.3-.1-.6-.1-.7 0s-.1.3-.3.4-.4.1-.5.3-.4.3-.5.5-.7.4-.7.6c0 .3.1.6.2.9l.3.6c.7.7 1.4 1.4 2.3 1.9 1.4.8 3 1.8 3.9 2.4.8.5 1.6 1 2.5 1.4.2 0 .5.1.7.3.2.2.5.6.8.4s.2-.1.6.1c.6.3 1.3.5 1.9.6.5-.1.9.3 1.4.7.5.4 1 .7 1.6 1 .1 0 .3.3.3.3.1.1.3.2.4.2.2 0 2 .4 2.5.6.4.1.9.2 1.3.3.3.1.6.2.5-.3s-.1-4.4-.1-5.7c.1-1.1.1-2.1 0-3.2-.2-1-.4-2.9-.4-2.9.2-.4.3-.8.2-1.3-.1-.6-.1-1.3-.1-1.9 0-.6 0-1.3.1-1.9.3-.5.3-.9.3-1.4zm.1-5.5c0-.6.1-1.2.3-1.8.1-.2.1-.7 0-1.1 0-.4 0-.7.2-1.1.1-.1.1-.5 0-1-.1-.6 0-1.2.2-1.8.1-.3.2-.8.3-1.2s.3-1 .3-1.1l-.1-.3c-.1-.3-.1-.7-.1-1 0-.4.1-.7.4-1 .2-.8.4-1.5.5-2.3.2-.7.4-1.3.5-2 0-.5.1-1 .3-1.5.1-.3.2-.7.2-1 0-.2.2-.3.4-.3.1 0 .3-.2.4-.4.1-.3.2-.6.4-.8.2-.2.5-.5.6-.7.2-.3.5-.6.8-.8.3-.2.6-.1.9-.1s.8-.1 1.3-.1.2.5.1 1c.1 0 .2.3.3.6s-.3 1-.2 1.4c-.1.4-.1.8-.2 1.1 0 .3-.2.7-.3 1-.2.2 0 1.2 0 1.7s.1 1.1-.1 1.4-.3.3-.1 1.1c.1.4.1.8-.1 1.2-.1.5-.1 1 0 1.5s.1 1 0 1.4c-.1.2-.1.3-.1.8 0 .3.1.7.2 1 .1.3-.2.5-.2.8v2.8c-.1.5-.2 1-.2 1.4.1.9.2 2 .2 2.2 0 .1.2.2.3.2 0 0 .1 0 .1-.1.3-.2.6-.3 1-.3s.8.1 1.2.2c.7 0 1.4-.1 2.1-.2.4-.1.3.2.3.2l.6.1c.9 0 1.8 0 2.7-.1 1.6-.1 1.1.2 1.8.2s1.9.1 1.9.1c.2.1.3.1.5 0s.2.2.4.3c0 .1.1.2.2.2.2 0 .3-.2.4-.5s1-.2 1-.2c.3.1.5.2.7.3.3.2.5.2.9.3.2 0 .4-.3.7-.2.4.1.7.3 1 .5.3.1 1-.1 2.1 0 .7.1 1.4.2 2.1.4.4.2.9.2 1.4.2.6 0 .5.1.5.1s.1.2.2.2c.2-.1.4 0 .5.2.2.2.3.1.9-.1s.5.1.5.1l.5.4.6.1c.2 0 .4.1.7.1.8.1 2 .6 2.2.6.3.1.7.2 1 .3.4.1.5.4.7.5.4 0 .8 0 1.2-.1.7 0 1.4.2 2 .5.9.3 2.1.7 2.6 1 .5.3.9.6 1.3 1 .2.5.2 1.1.2 1.7-.1.4-.2.7-.5 1-.1.2-.2.4-.2.6 0 .2-.4.5-.6.7s-1.1.1-1.4.2c-.7.4-1.5.6-2.4.6-.9.1-1.7.1-2.6.1-.2.1-.3.1-.5.2s-.5-.1-.7-.1-.6-.1-.4-.2-.2-.3-.5-.4c-.5-.1-1-.1-1.5-.1-.3.1-.7.2-1 .2-.3-.2-.7-.4-1-.5-.4-.1-.4-.6-.4-.7s-.2-.2-.4-.2-.6-.6-.5-.9.4 0 .6-.1l.6-.3c.3 0 .7-.1 1-.1l1.4-.2c.6-.1.4 0 .9-.1s.5-.1.4-.2.4-.2.9-.3 1.1-.2 1.5-.3.5-.3.5-.5-.7-.1-1-.3c-.3-.2-.7-.3-1.1-.5-.2 0-.5-.1-.6 0s-.2-.1-.2-.2-.2.1-.5.1-.1-.2-.7-.6c-.6-.3-1.3-.5-1.9-.5-.6 0-1.2-.1-1.8-.3-.2-.1-.4-.2-.5-.4h-1c-.3 0-.6-.1-.9-.3-.6-.2-1.2-.4-1.9-.5h-1c-.2-.1-.4-.2-.5-.3-.1-.2-.7-.2-.9-.3-.4 0-.8 0-1.2.1-.2.1-.5.1-1-.2s-.4-.2-.5-.1c-.4 0-.9-.1-1.3-.2-.2-.1-.5-.2-.7-.2-.3-.1-.7 0-1 .1-.3.2-.5-.1-.9-.2-.5-.1-1.1-.1-1.6-.1s-.9 0-1.4.1c-.3.1-.6.1-.9-.1-.3-.2-.6-.3-.9-.3-.3 0-.5 0-.8.1-.2.1-.3 0-.5-.1s-2.3 0-2.6 0c-.6.1-1.3.1-1.9.1-.3 0-.5.2-.5.4v.9c-.1.6-.1 1.2 0 1.8 0 .3 0 .7.1.9.1.3.2.5.1.8 0 .5.2 1.8.2 1.8.1.3.1.6.1.9 0 .5.1 1 .3 1.5.2.4-.2.7-.1 1.3 0 .5.1 1.1.2 1.6.2.6.3 1.2.4 1.8.1.8-.1 2.5.1 3.7 0 .9.2 1.8.4 2.7.3.6-.1 1.4.2 1.9s.4.3.4.3c.2 0 .3 0 .5.1.3.1.2.1.4 0s.4-.1.8 0c.3.1.6.1.9 0 .4 0 .8 0 1.2.1.7.1 2 .3 2.7.4.6.1 1.3.1 1.9 0 .4-.1.7-.1 1.1 0 .2 0 .7.1.7.1s.3.2.5 0 .5.1 1.3.2c.9.1 1.8 0 2.7-.2.7-.2 1.5-.2 2.2-.2.7.2 1.4.2 2.1-.1 1.2-.4 1.3-.5 1.7-.6.8-.1 1.5-.1 2.3 0 .4.1.9-.1 1.2-.3.2-.1.4-.1.6-.1.3.1.6-.1 1-.3.6-.3 1.1-.5 1.8-.6.8-.2 1.5-.5 2.3-.8.8-.3 1.5-.6 2.2-1 .5-.4 1-.6 1.6-.7.9-.3.7-.5.9-.6.2-.4.5-.6.9-.8.4-.2.7-.4 1.1-.6.3-.2.7-.5 1.1-.7.4-.3.8-.6 1.2-1l-.1-.5 1.6-1c1-.7.6-1.2 1-1.5.7-.6.3-.6.3-.6.4-.4.8-.8 1.2-1.1 1.1-.9.3-1.2.4-1.3s.2-.4.4-.4.4-.4.4-.6.3-.7.9-1.4c.5-.4.6-1 .5-1.5-.1-.6.1-.5.3-.7.2-.2.4-.5.4-.8.1-.6.2-1.3.4-1.9.2-.5.3-.9.1-1s.1-.8.2-1.2c.1-.3.1-.7-.1-1-.1-.2 0-.4.1-.5s0-.3-.1-.5.1-.4.1-.7c0-.2-.1-.4-.2-.5 0 0-.3-.5-.5-1s.2-.8.2-.8c.1-.2.2-.3.3-.5.1-.3-.2-.3-.4-.4s-.1-.2 0-.4 0-.4-.1-.5c-.2-.2-.4-.5-.3-.7s-.4-.8-.6-1.2c-.3-.6-.4-1.2-.5-1.8-.1-.2-.1-.4-.2-.5-.1-.3-.2-.5-.5-.7-.2-.1.4-.6.4-.9-.1-.3-.4-.5-.8-.5-.5-.1-.6-.5-.8-.9s-.4-.8-.5-1.1c-.1-.2-.3-.4-.6-.6-.2-.1-.3-.8-.5-1-.2-.3-.4-.7-.7-.9-.3-.3-.5-.7-.6-1.1-.2-.6-1.1-1-2.2-2.3s-2.2-2.3-3.3-3.3c-.2-.3-.5-.5-.8-.7-.4-.2-.8-.4-1.1-.8-.4-.6-1-1-1.6-1.3-1-.6-2-1.3-3-2-.6-.5-1.3-1-2-1.3-1.2-.6-2.3-1.2-3.4-1.9-.4-.3-.9-.5-1.4-.6-.5 0 2.6 1.5 2.4 1.2s-.1-.3-.5-.4-.9-.1-1.1-.4-.3-.2-.8-.2-5.9-2.8-6.4-2.8c-.3 0-.6-.1-.9-.4-.1-.2-.6-.1-1.9-.2-.9-.1-1.7-.5-2.3-1.1 0 0-.2 0-.8-.2s-.2-.2-1-.3-.7-.2-.9-.1-1-.7-1.6-.7c-.4-.1-.7-.2-1.1-.3-.2 0-.3.1-.5.2-.3 0-.7-.1-1-.2 0 0-.9 0-.9-.1-.3-.2-.7-.3-1.1-.3-.3 0-.5-.2-.9-.5s-1.5.2-1.5.2h-.9c-.2 0-1.2-.3-1.6-.4-.7-.2-1.4-.3-2.1-.2-.5 0-1.1 0-1.6-.1-.3 0-1.4-.2-1.6-.2s-.1-.2-.2-.3c-.8 0-1.6 0-2.5.1h-2.9c-.5.1-1.4-.2-1.8-.3-.5-.1-.9-.1-1.4 0-.7.1-1.8-.1-3.1-.1h-3.6c-1.2-.1-2.5 0-3.7.3-.8.2-1.7.3-2.5.2-.7.1-1.3.2-1.9.5-.1.1-.3.5-.9.8-.6.2-1.1.5-1.7.8-.2.2-.4.5-.6.7s-.5.5 0 .9.1.6-.2.6-.6.4-.9.5c-.4.1-.7.2-1.1.2-.4-.1-.4.2-.7.3s-.7.1-.9 0 .1-.4.1-.5c0-.1 0-.2.1-.3.1-.2.1-.5.1-.8-.1-.1-.4-.1-.6-.1-.4 0-.7 0-1.1-.2-.5-.2-.1-.7 0-1.1.1-.4.1-.8 0-1.1 0-.3.1-.6.4-.8.4-.2.7-.5 1-.7.7-.4 1.4-.6 2.2-.8.6-.2 1.2-.3 1.8-.3.3-.1.7-.2 1.1-.2.8-.1 1.6-.3 2.3-.5 1.1-.2 2.1-.2 3.2-.1.7-.1 1.5-.1 2.2 0 1.1.1 1.2.3 1.1 0s2.6-.3 3.2-.2.4.1.8 0c.5-.1.9-.1 1.4.1.5.2 1.1.2 1.6 0 .6-.1 1.2 0 1.8.1.7.1 1.4.1 2.1 0 1.2 0 2.4 0 3.7.1.7.1 1.3.1 1.6.2s.4.1.6 0 .7.2 1.2.3c.6.1 1.1.1 1.7.1.5 0 1 .1 1.5.2.6.1 1.2.2 1.9.1.9-.1 1.8 0 2.7.2 1.6.4 1.2.3 2.2.5s1.2.2 2 .3c.7.1 1.3.2 2 .4.6.2 1.2.4 1.8.4.4.1.8.1 1.2.1.4.2.8.3 1.2.6.2.1.8 0 .8 0 .3 0 .6.1.9.2.6.3 1.2.5 1.9.6.8.2.7.2.9.2s1.1.6 1.8.8.7.1.8.4 1.6.3 1.8.3c.3 0 .5-.1.8-.2.5 0 .4.4.6.4.3.1.5.2.8.4.2.1.5.2.7.2l.6.1c.4 0 .8.2 1.1.4.6.3 1.2.6 1.9.8.5.2.9.4 1.4.7.4.2.8.5 1.2.6.4.2.9.4 1.3.6.2.2.4.3.7.4.5.2.6.4 1.4.7.4.1.7.3 1 .6l.3.3.1.4s0 .2.4.2.5-.1.5-.1c.2.1.3.3.5.4.2.3.1.2.6.5s.3.2.6.4c.5.3.9.6 1.4 1 .4.4.9.6 1.4.5.4.1.7.3.9.6.1.2.3.4.5.6.3.1-.1.6.2.9.7.5 1.3 1.1 1.9 1.8.8.9.5.8.5.8.4.1.7.2 1 .5.2.2.4.4.7.6.3.2.5.5.6.8.1.1.4 1 .4 1.2.2.2.5.3.7.4.2 0 .3.1.5.2.1.1.1.5.3 1s1 1.2 1.2 1.6.5.5.7 1 0 .5.9 1.3.7.5 1 1.2c.3.6.5 1.2.6 1.8.2.6.4.2.7.6s.1.9.2 1.6 0 .7 0 .7-.4.3-.3.5.3.7.6.9.4.8.5 1.2c0 .7.1 1.4.3 2.1.1.8.3.7.4 1s-.1.5.1 1c.2.4.2.8 0 1.1-.1.2-.1.4 0 .7s.2.2.1.6c-.1.7-.2 1.3-.2 2s-.1 1.3-.2 2c0 0-.1.8-.3.9s.1 0 .1.3c-.2.5-.4 1.1-.6 1.6-.1.3-.1.9-.4 1.1s-.2.3-.1.6c0 .2-.2.4-.4.4s-.4.2-.5.7-.5 1.3-.8 1.7c-.1.2-.3.4-.5.6 0 0-.3.8-.4 1s-.4.6-.5.6-.4.3-.6.8c-.2.4-.4.7-.6 1-.1.2-.3.4-.5.4-.2.1-.4.4-.8.8-.5.5-1.1 1-1.7 1.4-.4.2-.4.4-.6.5s-.7.6-.8.8c-.8.7-1.7 1.2-2.8 1.5-1 .3-1.9.9-2.6 1.6-.5.3-1.1.5-1.7.6l-1.8.6s-.2.4-.5.4c-.4 0-.8.1-1.1.3-.4.2-.9.3-1.1.4s-.2.2-.4.2c-.4-.1-.9 0-1.2.2-.7.3-1.4.5-2.1.5-.5.1-.9.3-1.3.6-1.1.2-2.3.4-3.4.4-.4 0-.7.1-1.1.2-.7.2-1.4.3-2.2.3-.9.1-1.8 0-1.9 0-.5.1-1.1.2-1.6.3h-1.2c-.4.1-.6 0-.7.2s-.6.1-.8-.1-.8.1-1 .2-.5-.1-.7-.2c-1-.1-2-.1-3 0-.7 0-1.3.1-2 .1-.2 0-.4 0-.5-.2-.8-.1-1.6-.1-2.4-.1-.6 0-1.3 0-1.9.1-.8.1-.8 0-1.2-.4s-.1.3 0 .7.2.5.3.6.2.6.3.8c.1.3.1.6 0 .9-.2.5-.6.9-1.1 1.2-.3.1-.5.2-.7.4-.3.2-.6.4-1 .6-.3.1-.9-.1-1-.1-.2 0-.4-.1-.7-.2-.4-.1-.6 0-1.2 0s-.4-.3-.5-.6-.4-.3-.7-.7-.8-.3-1.1-.5c-.4-.5-.5-1.3-.3-1.9.1-.6 0-1.2-.2-1.8-.3 0-.7-.1-1-.1-.2.1-.4-.1-1.3-.4-.5-.2-1-.3-1.6-.3-.4 0-.7-.1-1-.3-.4-.2-.7-.3-1.1-.2-.3.1-.6-.2-.9-.5s-.4-.2-.7-.4c-.7-.2-1.4-.2-2.1-.2-.4 0-.6-.3-.8-.5s-.5-.5-.7-.8-1.2-.1-1.8-.1-.2 0-.2-.6-.1-.2-.6-.4c-.3-.2-.6-.2-.9-.1-.2.1-.4 0-.5-.3-.1-.2-.4-.3-.7-.2-.2.1-.5-.2-.5-.4s-.1-.3-.6-.5-.7-.4-1.4-.8c-.7-.3-1.2-.7-1.7-1.2-.6-.6-.9-.9-1.9-1.7-.6-.5-1.4-.9-2.2-1.2-.6-.2-.5-.8-.8-.9s0-.4-.2-.7c-.2-.3-.4-.7-.7-1-.3-.4-.5-.7-.7-.9s.2-.6.2-.8c.1-.2.1-.4 0-.7-.1-.3-.2-.6-.2-.9 0-.2-.1-.3-.3-.5s0-.4.4-.5.3-.3.3-.4.3-.2.5-.3.2-.7.1-.8c0-.3.1-.5.3-.6.3-.2.8-.7 1-.9v-.3s.7-.6 1.1-.8c.4-.2.9-.4 1.4-.5.5-.2.9-.6 2.1-1.3.6-.4 1.3-.7 2.1-.9.4-.1.8-.2 1.3-.2.6-.1 1.1-.3 1.7-.6.7-.3 1.5-.5 2-.6s.4.2.4.2c.4-.1.9-.2 1.3-.3.7-.2 1.4-.4 2.2-.5 1.2-.1.9.1 1.8-.2.7-.2 1.5-.3 2.3-.3 1-.1 1.4 0 2.9-.1-.7.2-.9-.7-.8-1.3"/><path id="Path_22" class="st1" d="M241.4 46.3c.1 0 .2.1.3.3.1.2.3.3.4.3h.1c.2-.2.4-.9.4-.9s.3-.1.5.1.1.4.7.7c.5.3.7.8.8 1.4.1.5 0 3.1.1 3.5.1.5.1 1 0 1.5 0 .4 0 .8.1 1.2.1.3.1.6 0 .9 0 1.2 0 2.3.1 3.5.1.8.1 1.6.1 2.4-.1.3-.1.7-.1 1 0 .2.1.8.1.8s.3.5.2.8-.2.4-.4.4-.1.3-.1.4.1.3.3.3.4.1.3.3c-.1.2-.2.5-.2.7V68c0 .7.2 1.9.2 2.5v2.3c.1.4.2.8.3 1.1 0 0 .5.4.5.6s.1.6 0 .7-.2.6 0 .6.4.2.4.4-.2.1-.3.3-.1.6-.2.9-.3.3-.3.5-.2.7-.6.8c-.2 0-.4.1-.7.1 0 0-.1-.3-.5-.2-.8.1-1.7-.1-2.4-.4-.2-.2-.2-.6-.4-.7s-.7-.5-.6-.7.1-.3 0-.4c-.2-.1-.4-.3-.5-.6 0-.2 0-.6-.3-.9-.3-.3-.5-.7-.6-1.2 0-.2-.2-2.9-.3-3.9 0-.6-.1-1.2-.4-1.8-.1-.2-.2-.8 0-.8s.4.3.2-.4.1-.9.1-1.4-.2-.8 0-.9.4-.1.2-.4 0-.3-.1-.6-.4-.4-.2-.6 0-.7.2-1.3 0-1.8.2-3.3c.1-.8.2-1.6.4-2.4.1-.8.2-1.6.2-2.5.1-.9.2-1.7.4-2.6.1-.4.2-.7.2-1.1.1-.3.3-2.2.4-2.4s.4-.7.4-.7l.4-.3"/><path id="Path_23" class="st1" d="M274.7 52.5c.3-.2.6-.3.9-.2.4.1.7.1 1.1.1.4 0 .4-.1.7-.1s.7-.1.8-.3.1-.5.4-.5.5-.1.4-.3.1.2 0 0-.2-.1-.4-.2c-.3-.3-.6-.5-1-.6-.5-.1-.9-.3-1.2-.3-.5-.1-1.1-.2-1.7-.2-.6.1-1.2.5-1.6.3-.3-.2-.6-.2-.9-.2-.3 0-.5 0-.8.1-.2 0-.5.1-.7.2-.1.1-.2.2-.4.1-1 .1-1.9.2-2.9.5-.5.1-.6.1-.9.2h-.7c-.3 0-.7.1-.8 0s-.5.1-.5.1 0 .1-.6.2-.7.1-1.3.2-.6 0-.9.1c-.4.1-.9.2-1.3.3-.2 0-.4 0-.6.1-.4.1-.3.2-.8.2-.2 0-.4 0-.6.1l-.2.5c-.1.1-.3.1-.4 0-.2-.1-.2-.2-.4-.2-.4.1-.7.2-1.1.3-.6.1-1.1.4-1.7.7-.2.2-.4.3-.6.4-.4.1-.7.3-1 .5-.2.2-.4.3-.6.4-.3.1-.5.3-.7.4s-.7.4-.7.6c0 .2-.2.4-.4.5-.3.1-.2.3-.4.4s-.4.2-.5.5c-.2.3-.4.7-.6 1-.2.2-.5.7-.4.9s.2.4.3.5.4.3.3.6-.1.5.1.6.9.4 1 .6c.2.3.5.5.9.6.6 0 1.2.2 1.7.5s1 .4 1.5.5c.5.1 1 .1 1.1.3.2.2.5.3.8.3.3-.1.7-.2 1-.1.6.1 1 .4 1.2.3s.1-.5.6 0c.3.3.7.5 1.2.3.2-.1.1-.2.7-.1.3.1.7.2 1.1.3.8.2 1.6.4 2.5.5 1 .1 1.9.3 2.8.6l1.8.6c.3 0 .6.1.8.3.1.2.4.1.5.3s.3.6.4.6c.1 0 .2-.1.4-.1.1.1.2.3.3.4.3.2.5.5.7.9.1.2.2.5.4.7.1.2.2.5.2.7.1.2.2.5.1.6s0 .2 0 .6c0 .6-.2 1.1-.5 1.6-.4.4-.6.7-.9 1s-.5.2-1 .5-1.1.5-1.5.7c-.4.2-.8.3-1.2.4-.1 0-.2-.2-.5 0s-.6.2-.9.2c-.4 0-.7-.1-1 0-.2 0-.4.1-.5.2-.1.1-.2.2-.4.3-.2.1-.6.1-.6-.1s.1-.2-.6-.2-1.4-.2-2-.2c-.3.1-.6 0-.9-.2-.3-.1-.5-.2-.8-.2h-.7s-.3-.2-.5-.1-.2 0-.5-.3-.2-.4-.3-.7-.4-.5-.2-.7.5-.2.7-.4-.4-.6.3-.8 1.2-.1 1.5-.4 1-.3 1.3-.3c.4 0 .8 0 1.2-.1.3-.1.4-.3.6-.2s.9 0 .7.2 0 .6 0 .6l.4.3h.5c0-.2.1-.4.2-.6.1-.2.3-.6.1-.6s-.3-.2-.3-.2 0-.4-.2-.4-1-.2-1.4-.2.2-.2-.5-.2h-2.2c-.1.1-.2.1-.3.1-.2-.1-.4-.2-.7-.2-.1 0-.7-.1-.9 0s-.3.1-.9.1-.9.1-1.4.1-.8 0-1 .2c-.3.2-.6.3-1 .3-.5.1-.7.1-.8.3s-.4 0-.4 0c-.3.1-.7.2-.7.3 0 .2-.2.3-.3.4-.1 0-.4.1-.5.3s-.2.4-.1.6.1.3-.1.3-.4.1-.4.3c0 .2-.1.5-.2.7-.2.1.1.3.1.3-.2.1-.5.3-.5.5s-.5.4-.1.6.6.3.7.3c.2-.1.4 0 .6.1.3.3.6.5.8.8 0 0 0 .3.7.3.4 0 .8.1 1.2.2.7.1 1.4-.1 1.7.1s1 .2 1.2.3.4.4.5.3 0-.2.5-.3c.3 0 .6.1.9.3 0 0 .3.4 2 .4 1.4.2 2.8.2 4.2.2.7-.2 1.4-.3 2.1-.3.3.1.5.1.8 0 .7-.2 1.5-.4 2.2-.5.4 0 .9-.1 1.3-.2.6-.1 1.1-.4 1.7-.7.2-.1.4.1.5-.1.1-.1.2-.2.4-.3l-.3-.2s.4.1.6-.1-.1-.1.6-.6l1.8-1.2c.2-.2.6-1.3.7-1.3s.7-.2.7-.3c.1-.3.2-.5.3-.8 0 0 .5-.3.9-2 .2-1.2-.2-2.4-.9-3.3-.7-.6-1-1.3-1.4-1.4s-.1-.2-.6-.4c-.4-.2-.8-.3-1.2-.4-.3 0-.8.3-.9.1-.1-.2-.1-.3-.1-.5v-.4s.1-.1-.6-.1-.7 0-1-.2-.2-.2-.5-.2c-.3-.1-.7-.1-1 0-.6.1.4-.2-.9-.2-.8 0-1.6-.2-2.4-.4-.6-.1-1.1-.2-1.7-.2-.3.1-.4 0-.9-.1s-.3-.2-.7-.1c-.4.1-.9 0-1.3-.1-.8-.2-2.5-.5-2.5-.5s-.8-.5-1.1-.4-.2.4-.6.2-.1-.3-.7-.3-.8 0-1.1-.4 0-.3-.7-.5c-.3-.1-.6-.3-.9-.5-.3-.2-.4-.7-.3-.9s0-.9.2-1l.6-.1c.1-.1.2-.3.2-.4 0-.1.4-.3.5-.3s.5-.2.9-.3.4-.2.4-.3.5-.3.8-.4c.4-.1.7-.2 1-.4.2-.2.4-.3.7-.3.2 0 1.9 0 1.6-.2s-.3-.1.2-.3c.4-.2.9-.2 1.3-.1.3.1.6-.4.7-.6.3 0 .7.1 1 .2.3.1.6-.1.5-.2s-.2-.2.2-.2 1 .1.8.3.3.1.3.1c.3-.1.6-.2.9-.2.5-.1 1.1-.3 1.5-.7 0-.1-.2 0 .2-.1s.8-.3 1-.1.3.3.7.3c.3 0 .6 0 .9-.1.6-.2 1.2-.3 1.8-.3"/><path id="Path_24" class="st1" d="M288.5 50.9s.4-.7-.4-.6-.3.3-.5.3-.6.1-.6.2 0 .4-.3.4-.4.3-.4.5c0 .3-.1.5-.2.7-.2.2-.4.3-.4.7.1.3 0 .7-.1 1-.1.4-.2.8-.3 1.1 0 .1-.1.5-.1.7-.1.3-.2.5-.2.8 0 .2.3 0 .3.3 0 .5 0 .9-.2 1.3-.1.1-.3.2-.5.2-.1.1-.2.2-.1.3 0 .2.2.8 0 .9s-.1.3-.1.6c0 .4 0 .8-.2 1.2-.2.3-.3.6-.3 1 0 .3.1.7 0 .9s0 .2 0 .5 0 .6-.2.7c-.2.1-.3.3-.3.5v1.5c-.1.4-.2.7-.2 1.1.1.4.1.8 0 1.1-.2.4-.4 1.7-.2 1.6s.4-.1.5.1c0 .3 0 .6-.1.9 0 .2-.4.6-.4.6v.3c.2.3.2.6.2.9-.2.3.1 1.1.1 1.3.2.4.2.8.2 1.2 0 .6.2.8.2 1.1 0 .3 0 .7.2 1 .2.1.2.4.5.7s.8.4 1 .6c.2.2.5.3.8.2.3 0 .6 0 .8.2.2.1.4.2.6.1.4-.1.3-.3.5-.3s.6-.1.7-.1.6-.2.5-.5.1-.5.1-.8-.2-1-.3-2.3l-.2-2c0-.4-.1-.8-.2-1.1 0-.2-.1 0-.2-.3-.1-.4-.1-.8-.1-1.2 0-.3-.1-1 0-1.2.2-.3.3-.7.2-1.1-.1-.8-.1-1.6 0-2.3.1-.7.1-.8.1-1.1 0-.4.1-.8.2-1.1.1-.4.4-1.3.4-1.7.1-.3.1-.5.1-.8 0-.2.3-.7.3-.9 0-.2.1-.5.2-.6.1-.3.2-.7.2-1.1.1-.4.2-.7.4-1 .1-.2.2-.8.7-.3s.9 1.2 1.1 1.5.6.5.7.7c.1.2.3.5.4.7.1.3.6.7.7 1.1s0 .8.2.8.4-.1.5.4c.1.3.3.6.5.9.1.2.2.4.2.6 0 .2 0 .6.1.7.1.1.2.3.3.5.1.5.3 1 .6 1.4.3.3.7.5.7.8 0 .2.1.3.1.4.1 0 .2.1.3.3.1.2.3.8.3.8.1.5.3.9.5 1.3.3.3.3-.3.5.4.1.5.3.9.6 1.3l.4.4s.1 0 .2.3c.2.6.5 1.1.8 1.6.4.5 1.1 1 1.3 1.4.1.3.3.7.6.9.4.4.5.9.9 1 .2 0 .4.1.6.3.1.1.5.2.4.3s0 .4.3.4.7-.1 1-.2c.2-.1.4-.1.5-.3l.2-.4s.3-.1.4 0 .1.3.3.3.2.2.2.2c.1 0 .3-.1.4-.2l.4-.4c.1-.1.2-.3.2-.5s0-.4.1-.7c.2-.2.3-.3.5-.4l.2-.3-.2-.3s0-.3.1-.4 0-.2.1-.4.3.1.3-.1c.1-.3.2-.7.1-1-.1-.4 0-.8.3-1.1.3-.4.2-.4.4-.6.2-.1.2-.3.1-.5v-.5c0-.3.4-.6.2-1.2s.2-.8.1-1.1c-.1-.7-.1-1.5 0-2.2 0 0 .4-.1.2-.5 0-.2-.1-.5-.2-.7-.1-.2-.2-.5-.1-.8v-.2c.1 0 .3-.1.3-.2v-.1c0-.3-.3-.8-.3-.9s0 0-.1-.5-.1-1-.1-1.5c-.1-.2-.1.1-.2-.7-.1-.8-.1-1.6-.1-2.3v-1c0-.1-.1-.2-.2-.3-.2-.1-.3-.3-.3-.5s-.2-.1-.2-.6 0-.6-.2-.7-.4-.1-.4-.3-.1-.5-.1-.8c0-.2-.1-.4-.3-.6-.2-.2-.1-.4-.2-.9s-.1-.9-.3-1-.3-.3-.4-.7c-.1-.3-.2-.5-.3-.8-.1-.3-.1-.5-.3-.8 0 0-.2 0-.4-.4s-.1-1.1-.3-1.2-.3-.1-.5-.5 0-.4-.4-.7-.1-.1-.5-.7-.8-.8-.8-1.1-.1-.4-.4-.5-.6-.2-.7-.5 0-.7-.1-.8-.4-.3-.5-.3-.4.2-.4-.2c0-.3-.2-.6-.4-.7-.2-.1-.5-.3-.7-.5-.3-.2-.5-.2-.5-.4s-.1-.3-.3-.2-.5 0-.7 0-.8.1-.8.3c0 .2.1.4.3.5.2.1.4.1.4.3s.2.5.4.3.2-.1.3.1c.1.3.3.5.5.7.2.2.5.6.6.7s.5.7.5.8.4.4.5.7.7.5.7.7-.1.5.1.7c.1.2.2.4.1.7 0 .4.2.8.4 1.2.3.2.8.6.8.6.1.2.1.5.1.7-.1.4 0 .7.2 1 .3.3.4.7.5 1.2 0 .3.1 1.2.2 1s.2 0 .2.5c-.1.6-.1 1.2.2 1.7.3.3.4.7.5 1.1.1.4.3.7.2 1-.1.2-.1.5 0 .7.1.3-.2.5 0 .8.2.4.3.8.3 1.2 0 .7-.1 1.4 0 1.8s0 .7.1.7.3.4.2.9c-.1.3-.2.7-.1 1 0 .1.1.2.2.3 0 0 .3 0 .2.2s-.1.5-.3.4-.4 0-.3.2c0 .4 0 .8-.1 1.1-.2.6-.3 1.3-.2 2 .1 1.1.1 1.5 0 1.7-.3.4-.5.8-.6 1.3-.1.7-.1 1.1-.4 1s-.4-.3-.6-.4-.4-.2-.6-.6 0-.6-.4-.9-.9-.2-1-.8c-.1-.4-.2-.9-.4-1.3-.1-.1-.2-.2-.4-.3-.1 0-.4-.1-.4-.3s.1-.2-.1-.3-.3-.2-.3-.4 0-.7-.3-1-.4-.3-.5-.6-.2-.4-.3-.5 0 .3-.3-.6-.9-1.3-1.9-2.9-1.7-2.5-2-3-.4-.6-.4-.8.2-.3 0-.7-.6-.8-1.2-1.7-1.3-1-1.6-1.5c-.2-.4-.4-.8-.7-1.1-.3-.3-.5-.5-.7-.4-.5-.5-1-.8-1-1s.2-.1-.4-.2-1.1-.3-1.4-.2"/><path id="Path_25" class="st1" d="M318.8 52.6c-.1-.2-.3-.2-.5-.2 0 0-.1-.2-.6-.2s-1.2.3-1 .1.1-.2 0-.4-.2-.3-.2-.4c0-.2 0-.4.1-.6 0-.3.2-.5.4-.7.3-.3.6-.5 1-.7.3-.1.7-.4.9-.3s.5-.1.9-.2c.4-.2.9-.3 1.4-.4.6-.1 1.2-.3 1.8-.6.3-.1.6-.1.9-.1.2 0 .5 0 .7-.1l1.1-.3c.3-.1.7-.1 1-.1l.4.3.3-.2c.2-.1.4-.2.6-.2h.9l.5-.2.4.1c0-.2.2-.3.4-.3h.1c.5.2 1 .2 1.5 0 .3-.1.5-.2.8-.1 0 0 .1.1.6.1s1.4.1 2.1.1 1.1-.1 1.2.1.6.2.6.2h1c.5 0 1.1.1 1.1.2s.2.3.4.2c.3 0 .6 0 .9.1l.4.4c.2.1.4.2.5.3.1.2.2.4.1.7-.1.2.1.3.1.3l-.1.3c-.2 0-.3.1-.5.1-.2.1-1 .4-1.2.5s-.6-.1-1 .1-.6.5-.8.4 0-.2-.6 0c-.4.1-.8.1-1.2 0h-.9c-.2.1-.5.2-.8.2-.3 0-.9 0-1-.3s.1-.5 0-.6c0-.2-.1-.3-.1-.5 0 0 .3-.3 0-.3s-.5.1-.7.1-.2-.2-.7-.2c-.5.1-1.1.1-1.6.1-.2-.1 0-.1-.7 0-.6 0-1.2.2-1.7.5-1.4.5-1.5.4-2 .7-.3.2-.6.3-1 .3s-.4.2-.7.3-.2.3-.3.6-.2.5 0 .6.2.3.2.6-.3 1-.4 1.5c-.1.5-.2 1-.2 1.4-.1.7-.3 1.3-.5 1.9-.1.3-.1.6 0 .9 0 .3-.1.5-.1.8v.6c.2-.1.3-.1.5 0 .3.1.4.1.9 0s1.2-.2 1.6-.3c.4-.2.8-.2 1.2-.1.2 0 .5 0 .7-.1.1 0 .2-.1.4-.1.3-.1.7-.1.7-.1s-.2.4.2.3c.3-.1.5-.2.7-.4 0 0 0-.3.2-.2.2.1.3.1.5.1h.3c.1 0 .4 0 .3-.2s0-.4.2-.2c.2.1.4.2.6.2.1-.2.3-.3.5-.3s.4 0 .7.1c.2 0 .4 0 .6-.1.4-.1.8-.1 1.2-.1.4.1.7.2 1.1.3.3 0 .5.1.8.1.3 0 .5.1.7.3.2.1.4.4.1.6s-.7.4-.6.3-.3.2-.4.2-.5.1-.6.1-.4.4-.4.4c0 .1-.1.2-.2.2-.2 0-.4-.1-.6 0-.5.3-1 .5-1.5.7-.5.1-.4.2-.9.3s-.5.5-.8.3-.4-.3-.5-.1-.3.5-.5.4h-.5c-.3.1-.7.1-1 .2-.4.1-.1.5-.4.5s-1.2.2-1.5.2c-.3 0-.6 0-.9.1-.3.1-.6.1-.9.1-.4 0-.8.1-1.1.2-.3.2-.7.2-1 .1-.2.1-.4.3-.3.6.1.4.2.7-.1 1-.2.3-.4.7-.5 1.1 0 .3.2.5.1.7-.2.4-.3.8-.4 1.3-.1.4-.2.7-.1.9s.1.1 0 .4-.5.9-.5 1.1.4-.7.3 0-.2 1.2-.2 1.5.1.3 0 .7-.5 1-.2 1.2c.2.2.4.5.5.8.1.3-.1.9.3.8.3-.1.5 0 .7.2.2.2.6.4.9.4.2-.1 1 0 1.2-.1.8-.3 1.6-.6 2.4-.6.8 0 1 0 1-.2s.1-.3.4-.3.5-.1.7-.2l.9-.3c.2-.1.5-.2.7-.3.1-.1.2-.1.4-.2.4 0 .8-.2 1-.5.2-.3.4-.5.7-.7.2 0 .4-.2.6-.2s.3.2.6-.1.5-.6.8-.5 0 .4.4.3.7.1.7.3c0 .4 0 .7-.2 1l-.9 1.2c-.3.6-.2.8-.7 1-.5.3-.9.7-1.2 1.2-.2.2-.7.2-.7 0s.3-.2-.5.3c-.8.6-1.8 1.1-2.8 1.4-1 .3-1.3.3-2.3.6-.7.3-1.4.5-2.1.6-.9.2-1.8.3-2.8.4-.4 0-.7-.1-1.1-.2-.2-.1-.4-.2-.7-.2-.4-.1-.9-.2-.8-.4s0-.4-.2-.3c-.2 0-.4.1-.7.1-.3.1-.6.2-.9.2 0 0 .1-.3-.2-.3s-.8 0-.9-.2-.3-.7-.2-.9c.1-.3 0-.7-.3-.9-.4-.3-.6-.1-.7-.5 0-.3-.1-.7-.2-1-.1-.2-.1-.3-.2-.4s-.2-.2-.2-.4c-.2-.5-.2-1 0-1.5.2-.4.2-.8.2-1.2 0-.2.2-1.1.2-1.5s.1-1.2.2-1.8.1-1.2.2-1.4c.1-.3.2-.6.2-.9 0-.2 0-.2.2-.5s.3-.7 0-.8-.5.3-.7-.1c-.2-.5-.2-1 0-1.5.2-.3.2-.7.7-1s.8-.3.8-.7.3-1.1.4-1.6.1-1 .2-1.5.5-1.4.4-1.6-.3-.3 0-.5c.4-.4.7-.9.7-1.5 0-.5-.2-.7.2-1.1.2-.3.3-.6.2-1-.2-.7-.2-1-.2-1.2"/><path id="Path_26" class="st1" d="M371.8 53.1c-.1.1-.5.1-.7.1-.3.1-.6.3-.8.6-.4.3-.7.7-1 1.1-.2.3-.4.1-.9.3s-.4.3-.7.6-.2.2-.2.4-.3.6-.5.7-.6.5-.9 1-.4.6-.4 1-.4.3-.6.5c-.4.3-.7.6-1 1-.3.4-.1.3-.4.8s-.2.2-.3.3-.1.5-.6.7-.5.2-.6.5c-.1.3-.2.7-.3 1 0 .2-.1.4-.2.6-.1.1-.3.2-.3.3s-.4.3-.7.4-.6.6-.9 1c-.2.3-.4.6-.4 1-.1.3-.3.6-.5.8l-.6.9c-.1.2-.1.4-.4.6-.3.1-.4.4-.4.7-.1.4-.3.7-.5.9-.3.4-.5.9-.7 1.3-.2.2-.2.5-.3.8-.1.4-.3.7-.6 1-.3.3-.3.6-.5 1.5s.4.3.6.1.4-.3.6-.5.2-.1.6-.1c.3-.1.6-.2.8-.4.2-.2.5-.4.8-.5.4-.1.3-.1.5 0s.2.1.4 0 .1-.2.4-.3.3 0 .4-.2.2-.2.5-.3.4-.2.4-.4c.1-.2.3-.3.5-.4.2-.1.4-.5.4-.7s.2-.2.5-.1.7-.4.6-.7.4-.2.5-.4c.1-.3.3-.5.5-.7.2-.2.4-.1.7-.2.5-.4.9-.8 1.2-1.3l.6-.9c.4-.6.2-.4.5-.6s.4-.8.4-1 .1-.2.4-.1.2-.1.2-.3c0-.2.1-.4.3-.5.2-.1.2 0 .3-.2.1-.3.2-.5.4-.7.3-.3.5-.4.7-.7l.3-.9.4-.1c.1-.3.3-.6.5-.9.3-.5.4-.7.5-.9.1-.2.2-.4.2-.6 0-.2.3-.4.4-.8l.2-.8c.1-.2.2-.3.4-.5.2-.3.3-.6.3-.9-.1-.3.2-.5.3-.6.1-.3.2-.7.2-1 .1-.3.1-.6 0-.9-.1-.4-.1-.8 0-1.2 0-.4-.2-.5-.4-.7 0 0-.2-.2-.2-.4s-.2 0-.5.2m-21.1-5.7c.4 0 .5-.1 1-.4s.5 0 1.4-.2.7.1 1.5.4c.3.1.7.2 1 .3.3.1.3.2.3.2.1.2.2.4.2.6.2.4.2.9-.1 1.2-.4.4-.5.3-.9.5s-.3.1-.5.5-.5.7-.8.9c-.4.3 0 .5-.1.9s-.7.4-1.3.7-.1.2-.2.4-.3.2-.3.5c0 .2-.2.5-.4.7-.3.4-.6.8-.8 1.2-.4.8-.8 1.5-1.4 2.2-.5.9-1 1.8-1.4 2.8-.5.9-.9 1.9-1.2 2.9-.4 1.2-.5 1.8-.8 2.7s.1.5.3.9-.5 1.2-.5 1.5.1.4-.1.9.1.4-.1.9c-.1.4 0 .8.1 1.1 0 0-.2.3 0 1.1s.2.3 0 .5 0 .6 0 .9.4.6.5.9.1.3.3.6.5 0 .7-.1.2-.2.6-.1.2-.4.4-1.2.8-1.2 1.2-1.8.4-.4.4-.7c.1-.5.4-1 .8-1.4.3-.4.6-.8.9-1.3.2-.3.1-.2.3-.3s.2-.5.4-.8c.2-.3.4-.6.5-.9.1-.4.7-.9.8-1.1s.2 0 .3-.2.2-.6.2-.6l.1-.3c.1-.2.1-.3.2-.5 0-.1.5-.5.9-.7s.4-.1 1-1.2.6-1 .9-1.3.3-.2.9-1.2.7-.9 1.1-1.1.3-.1.5-.1c.1-.4.1-.7.3-1.1.1-.3.5-.3 1-.8s.3-.4.3-.4l1.5-1.5c1.2-1.2.8-.7 1.3-1.1s.3-.1.4-.4.3-.4.8-.7.5-.1.8-.5c.4-.5 1-.9 1.6-1.2.6-.3.7-.5 1.2-.8.4-.2.8-.2 1.2-.2.4-.1 1-.4 1.8-.5.6-.1 1.2-.1 1.7 0 .9.1.9.1 1.1.4s0 0 0 .4.2.1.4.6c.1.3.2.7.4.9.1.2.1.4-.1.6-.2.3-.3.6-.3 1 0 .5 0 1-.1 1.5-.2.5-.1.6-.5 1s-.2.6-.4 1 .1.3.1.8-.3.4-.3.5c-.1.4-.2.7-.4 1-.2.3-.3.6-.3.9 0 .1-.5.3-.5.3l-.1.5s-.5.7-.7 1 0 .6-.1.9-.2.3-.3.5c-.3.4-.7.8-1.1 1.1-.3.3-.4.6-.4 1-.1.2-.3.4-.5.6-.2.1-.2.3-.3.6s-.4.3-.5.6c-.2.4-.5.8-.8 1.2-.3.3-.2.4-.2.5-.1.2-.2.3-.4.4-.2.1-.2.1-.4.5s-.6.4-.8.6c-.2.2-.3.4-.4.7-.1.3-.3.5-1 1.1s-1.9 1.6-2.3 2c-.2.2-.4.4-.5.6-.1.2-.5.1-.6.4s-.7.4-.9.5c-.2.1-.4.3-.6.6-.1.2-1 .7-1 .7s-.5.2-.9.4c-.3.1-.5.2-.8.4-.2.2-.5.2-.6.2-.2.1-.3.2-.5.3h-.4c-.2-.1-.2 0-.6.2s-.4.4-.7.7-.4.1-.7.3c-.3.2-.8.4-1.2.4-.4 0-.2.4-.3.9s-.4.6-.7 1.3c-.2.5-.5.9-.8 1.3 0 0-.1.9-.1 1.2s-.5 1-.6 1.3-.5.7-.4 1.1-.3 1.2-.4 1.4c-.1.3-.2.6-.2.9 0 .5-.1 1-.3 1.5-.1.5-.2 1.1-.3 1.6-.2.4-.3.9-.4 1.3-.1.6 0 .9-.2 1.3-.2.5-.2 1-.2 1.4 0 .5-.1.9.1 1.1s.1.4-.1 1.1c-.1.4-.2.8-.1 1.2 0 .3.1.5.3.8.1.2.2.2.3.4s-.5.5-.7.6 0 .4-.2 1.1 0 .9.2.9.1.3 0 .7c-.1.6 0 1.2.1 1.8.2.7-.2.8-.2 1s.2.3.4.7c.1.4.1.8 0 1.1 0 .1-.3.7-.4 1.2s.1.4.2 1.1 0 1.6 0 1.9c0 .2.1.4.1.6 0 .1-.3.2-.4.3-.1.1-.1.3-.1.5 0 .1-.4.3-.5.5-.2.2-.4.4-.7.6-.1.2-.1-.2 0-.3s-.6.2-.9.4-.4-.1-.8-.1-.6-.3-.8-.4-.4-.2-.9-.4-.4-.5-.4-.5c-.2 0-.4 0-.6.1-.2.1-.4 0-.7-.1s-.8-.4-.8-.4c-.2 0-.4 0-.5-.1-.2-.1-.1-.9-.1-1.2 0-.3 0-.6-.1-.8-.2-.3-.4-.6-.8-.8-.3-.2-.3-.8-.4-.9-.1-.1-.2-.2-.3-.2 0 0-.6-.9-.8-1.1-.1-.2-.3-.4-.4-.6-.1-.3-.3-.2-.3-.2s-.2-.4.2-.5.4-.4.7-.4h.6c.3-.1.7-.2 1-.4.5-.1.4.2.6.3s.2 0 .5-.1c.2-.2.3-.4.4-.7v-.7c.1-.3.2-.5.2-.8 0-.2-.1-.3-.1-.7 0-.3 0-.5-.1-.8 0-.2.1-.4.4-.4.2 0 0-.4 0-.6s.4-.1.4-.5.1-.4.1-.6c.1-.4.1-.7-.1-1.1-.2-.7 0-.8 0-1.3s.4-.4.3-.8.2-.7.4-1.5-.5-.9-.5-1.1c-.1-.3 0-.6.2-.8.3-.2.4-.6.3-.9 0-.3-.1-.2-.3-.1s.1-.3.1-.3c.1-.1.1-.3.1-.4 0-.2.2-.2.4-.4s0-1 0-1.2c0-.2.2-.4.5-.4.2 0 .2-.4.2-.5s.1-.7.1-.9-.3-.2-.3-.4c.1-.4.2-.9.4-1.3.1-.2.1-.4.1-.6 0-.2.1-.4.2-.6.2-.3.3-.6.3-.9 0-.4 1-2.6 1.1-3.3s.1-.4.3-1.2 0-.7-.1-1.1-.2-.4-.4-.3-.2-.6-.2-.7l-.6-.6c-.2-.1-.5-.1-.7-.1-.2.1-.2 0-.3-.2-.1-.1-.2-.2-.3-.2V76c0-.3-.2-.2-.6-.3s-.3-.7-.3-.9c0-.1-.1-.3-.2-.3-.2-.1-.1-.1-.1-.3 0-.2-.1-.4-.2-.5-.2-.1-.2-.4-.2-.5s-.2-.6-.4-.6-.4-.6-.4-1-.1-.9-.1-1.1-.2-.3-.5-.9.1-1.8.2-2c0-.2 0-.3-.1-.5 0-.2.1-.4.3-.9.1-.4.1-.8.2-1.2 0-.1-.1-.3-.2-.4s0-.7.2-.9c.2-.3.4-.6.5-.9.1-.2-.1-.3-.1-.4-.1-.2-.2-.4-.1-.6.1-.3.5-.6.6-1 .2-.3.3-.7.4-1.1 0-.2.1-.3.2-.5.2-.2.2-.9.4-1.3s.5-.8.7-1.2c.4-.5.6-1.1.9-1.4s.2-.2.5-.2.1-.5.1-.5c-.1-.2-.1-.5-.1-.8.1-.3.4-.5.5-.7.2-.4.5-.8.9-1.1.5-.3.9-.9 1.1-1.5.3-.7.1-.4.4-.4s.4-.5.4-.6c.1-.4.4-.8.8-1 .4-.3.2-.6.4-1.1.2-.3.5-.6.8-.8 1 .1 1.3 0 1.7.1"/><path id="Path_27" class="st1" d="M258.6 23.5c-.2.4-.2.8-.2 1.3 0 .3-.1.7-.3 1-.2.2-.3.6-.5.8-.4.2-.7.5-.9.8-.1.3-.3.6-.5.8-.4.4-.7.8-.6.9s.1.3-.2.5l-.9.9c-.3.4-.3.1-.7.6s-.1.7-.9 1c-.4.2-.7.5-1 .8-.2.1-.5.1-.6.2-.2.3-.4.6-.7.7-.4.2-.7.4-1 .8-.3.3-.1.2-.8.4s-1.2.1-1.5.2c-.3 0-.6.1-.8.3 0 .2-.2.4-.4.4-.4.1-.5.3-.6.2s-.3-.3-.4-.1-.9.2-1 .3c-.3 0-.6 0-.9.1-.2.2-.6-.1-.6-.2-.1-1.1 0-2.3.3-3.3.4-.8.6-1.6.8-2.4 0-.2.1-.2.3-.5.2-.5.3-1 .4-1.5.1-.4.3-.9.6-1.3.3-.3.4-.7.5-1.1 0-.4.2-.7.4-1 .2-.4.4-.8.5-1.2.1-.4 0-.5.4-.8s.6-.5.6-.9.1.1.6-.5c.2-.2.6-.3.9-.2.3.1.5.1.8.1.2-.1.2 0 .4-.1s.3-.2.4-.4l.4-.4c.2-.1.3-.3.5-.5 0 0 .2-.3-.1-.3s-.3-.1-.5-.2-.4-.3-.6-.4c-.2-.1-.3-.4-.1-.6l.1-.1c.2-.2.6-.4.6-.7s0-.4.4-.5.8.1.9-.2-.2-.5.2-.7.6-.4.9-.6c.3-.2.2-.1.7-.1h1c.1-.1.1-.3.6-.1.5.1 1 .4 1.3.7.2.3.2.5.4.7.3.1.5.3.5.6.1.4.1.6.3.8s.4.2.4.4.1.3.1.8c0 .4.1.9.2 1.3.2.3.3.1.3.6 0 .6-.1 1.2-.4 1.9zm-16.7-1c0 .2-.3.6-.5 1s-.4.8-.5 1.2c0 .2-.1.5-.4.5-.2.2-.3.4-.4.6-.1.4-.2.8-.4 1.2-.2.3-.3.7-.4 1.1l-.3.9c-.1.4-.5 1.1-.7 1.5s-.3.9-.5.9-.3-.4-.3-.4c-.1-.4-.1-.8-.1-1.3v-1.2c0-.2 0-.4-.1-.5 0-.4 0-.7.1-1.1.1-.2 0-.5-.1-.7-.2 0-.1-.6-.1-1.1.1-.4.3-.8.6-1.1.3-.4.5-.2.6-.4s0-.9-.1-1.2.2-.4.4-.7.2-.4.5-.5.4-.1.5-.4.7-.5 1-.8.3 0 .5 0 .2-.1.3-.2c.1-.2.3-.2.4-.2.2 0 .3-.3.4-.4s.6 0 .8 0 .5-.6.7-.8.5-.2.6-.1-.2.4-.2.4c-.2.1-.4.3-.6.5-.1.2-.3.4-.4.6-.2.3-.4.7-.7.9-.3.2-.6.9-.7 1.1s.2.5.1.7zm18.3 2.6c.4-.9.7-1.8.6-2.8-.1-.8.1-1.5-.2-2.2-.2-.4-.4-.8-.5-1.2-.2-.7-.5-1.4-.9-2-.6-.9-.6-1.1-1-1.5-.5-.4-1.1-.7-1.7-.8-.5-.2-1.1-.3-1.6-.4-.8-.2-1.2-.4-1.5-.2s-.4.1-.8.2c-.3.1-.7.2-1 .4-.5.3-.4.5-1.1.4s-1.3-.4-1.8.4-.7 1-1 1.1-.5.3-.6.4-.3.4-.4.4-.6-.1-.8-.1c-.1 0-.2.1-.3.2-.1.1-.3.2-.4.1-.2-.1-.5-.2-.8-.3-.3.1-.6.1-.9.1-.5 0-.9 0-1.4.1-.3 0-.6.1-.9.2-.1.2-.3.3-.5.2-.2-.1-.4-.1-.7 0-.4.1-.3.3-.5.4s-.2.1-.4.1c-.3.1-.6.1-.9.2 0 0-.1.1-.5.3s-1.1.3-1 .5 0 .4-.4.5-1 .2-1.2.4c-.2.2-.4.4-.6.4-.3.1-.5.1-.5.3s-1.8 1.9-2 2.4-.5.8-.5.9c0 .2-.1.4-.2.5-.3.4-.5 1-.5 1.5s.1 1 .1 1.8c-.1.7 0 1.4.1 2.1l.3.9c.1.5.2 1.1.5 1.6.4.5.6.9.8.9s.4.1.6.2.3.3.3.5 0 .5.2.3.6.3.5.7 0 .5.2.4.3-.4.4-.2.3.2.4.1c.3-.1.7-.1 1 .1.3.3.4.6.7.6s.5-.2.7 0c.2.3.5.5.9.7.3.1.1.1.6.4s.4.1.6.7c.1.3.2.6.4.8 0 0 .4.3.5.5s.1.4.3.4.3.3.4.6-.2.2.7.9 1.3.9 1.2.6c-.1-.3-.2-.6-.4-.9-.2-.2-.2-.5-.5-.8s-.1-.4-.3-.5-.2 0-.3-.2 0-.7 0-.8.1-.7.3-.7c.3 0 .5.1.8.3.1.1.4.3.5.2h.7c.2.1.4.1.6.1.4-.1.6-.1.5-.2s-.3-.3-.1-.4c.1-.1.3-.2.4-.2.1-.1.9-.3 1.2 0 .3.3.6.4 1 .3.3-.2.7-.3 1-.2l.8.1c.2 0 .6 0 .6-.2.1-.3.2-.5.5-.7.2-.1.6-.4.8-.3s.6.1.7-.1c.1-.2.3-.2.6-.2.2 0 .5.1.5-.2s.4-.4.6-.7.1-.2.5-.4c.4-.3.7-.7 1-1.1.1-.2.3-.3.5-.3v-.5c0-.1-.7-.2-.2-.5s.3-.4.7-.6c.3-.2.6-.4.9-.7.7-.6 1.3-1.2 1.8-2 .4-.6 1-1 1-1.3s-.3-.2.2-1 .5-.8.5-1-.5-.8-.4-1"/></g></g></svg>