<svg xmlns="http://www.w3.org/2000/svg" viewBox="0 0 202.55 30.66"><path d="M139.17 15.94c0-3.6 2-5.54 4.71-5.54a3.91 3.91 0 014.12 3.33l-1.72.49c-.41-1.42-1-2.14-2.45-2.14-1.82 0-2.87 1.41-2.87 3.84s1.08 4 2.9 4c1.39 0 2.17-.7 2.58-2.31l1.72.39a4.15 4.15 0 01-4.32 3.57c-2.71-.04-4.67-1.94-4.67-5.63zm10.02 1.55a3.76 3.76 0 117.51 0 3.76 3.76 0 11-7.51 0zm5.71 0c0-1.44-.61-2.48-2-2.48s-1.95.93-1.95 2.48.59 2.5 1.95 2.5 2-.92 2-2.5zm3.1 3.84v-7.7h1.79v1.06a3.5 3.5 0 012.64-1.2 1.92 1.92 0 012.1 1.26 3.63 3.63 0 012.69-1.26 2.06 2.06 0 012.25 2.31v5.53h-1.78v-5.08c0-.85-.25-1.24-1.09-1.24a3 3 0 00-2 1v5.32h-1.8v-5.08c0-.85-.25-1.24-1.09-1.24a3 3 0 00-2 1v5.32zm13.06 2.9v-10.6h1.79v1a3.09 3.09 0 012.45-1.16c1.75 0 3 1.31 3 4s-1.32 4-3.29 4a2.9 2.9 0 01-2.2-1v3.76zm5.5-6.74c0-1.63-.7-2.48-1.84-2.48a2.58 2.58 0 00-1.87 1v3.09a2.35 2.35 0 001.81.95c1.34-.05 1.9-.85 1.9-2.56zm2.57 1.98c0-1.66 1.42-2.78 5-3.19v-.23c0-.77-.4-1.1-1.26-1.1a4.17 4.17 0 00-2.59 1l-.87-1.11a5.48 5.48 0 013.71-1.39c2.06 0 2.77 1 2.77 2.78v3.17a5.27 5.27 0 00.22 1.89h-1.8a2.82 2.82 0 01-.18-1 3.68 3.68 0 01-2.84 1.1 1.94 1.94 0 01-2.16-1.92zm5-.29v-1.69c-2.13.29-3.26.81-3.26 1.65 0 .61.42.93 1.08.93a3 3 0 002.19-.89zm3.38 2.15v-7.7h1.78v1.23a3.65 3.65 0 012.71-1.37 2 2 0 012.28 2.24v5.6h-1.78v-5.09c0-.84-.35-1.28-1.16-1.28a3.1 3.1 0 00-2.09 1v5.37zm7.24 2.75l.41-1.43a5.45 5.45 0 001.3.16 1.16 1.16 0 001.22-.87l.22-.57-3-7.74h1.86l2 5.61 2-5.61h1.77l-3.28 8.54c-.5 1.35-1.17 2.14-2.69 2.14a6.59 6.59 0 01-1.81-.23zM3.3 21.31v-9H0v-1.73h8.42v1.68h-3.3v9zm6.19 0V10.58h1.8v4.08a3.78 3.78 0 012.81-1.19 2.07 2.07 0 012.22 2.32v5.52h-1.8v-5.07c0-.86-.36-1.25-1.14-1.25a3.13 3.13 0 00-2.09 1v5.32zm8.04-3.84a3.65 3.65 0 013.67-4c1.72 0 3.38 1 3.38 4.16v.42h-5.27a1.91 1.91 0 002.06 2 2.78 2.78 0 002.16-.9l.95.93a4.18 4.18 0 01-3.24 1.39c-1.93 0-3.71-1.17-3.71-4zm5.41-.76c-.1-1.17-.68-1.79-1.76-1.79a1.8 1.8 0 00-1.84 1.79zm71.6-8.51s.27-.4.49-.7a13.51 13.51 0 011.69-1.79l.37-.3-.49.06a3.79 3.79 0 00-1.34.76c-.5.43-1.06 1.14-.81 1.76l.09.21m2.82.8a5.25 5.25 0 002.25-.67c.68-.38 1.69-1.13 1.58-2a.75.75 0 00-.45-.6 1 1 0 00-.85 0 2.25 2.25 0 00-.68.29 10 10 0 00-2.5 2.21c-.14.18-.28.39-.4.53s-.12.16-.11.18a3.51 3.51 0 001.16.06m-2 1.5a4.19 4.19 0 00-.26.45.92.92 0 01-.2.23.4.4 0 01-.58 0 1.43 1.43 0 01-.46-1 2.53 2.53 0 000-.48 3.19 3.19 0 00-.41-.7 3 3 0 01-.28-1 3.41 3.41 0 011.07-2.44 6.85 6.85 0 012.37-1.62 4.6 4.6 0 013-.28 2.3 2.3 0 011 .63.49.49 0 00.13.15.66.66 0 00.23.05 2.56 2.56 0 01.91.43 1.79 1.79 0 01.64 1 2.83 2.83 0 01-.87 2.36 8.58 8.58 0 01-3.13 2.14 4.87 4.87 0 01-2 .35c-.19 0-.38-.06-.57-.08a1.78 1.78 0 01-.47-.12s-.11-.06-.12-.05M66.14 13a3.24 3.24 0 001.22-.22c.22-.1.48-.31.35-.57s-.34-.21-.5-.2a1.31 1.31 0 00-1.1.95m2.23-1.31a2.27 2.27 0 01.46 1.28 2 2 0 01-.39 1.31 2.67 2.67 0 01-2 1 4.64 4.64 0 01-.9 0h-.06a3.49 3.49 0 00-.15.59c-.07.53-.15.91-.21 1.33s-.09.69-.12 1a25.72 25.72 0 00.06 5.12 1.36 1.36 0 010 .35.57.57 0 01-.43.47c-.72.19-1.4-.52-1.75-1.08-.82-1.32-.55-4-.31-5.35a15.08 15.08 0 01.52-2.22 6.31 6.31 0 00.23-.73s-.39-.16-.73-.29a7.81 7.81 0 01-.74-.39 3.94 3.94 0 01-.82-.74 3.84 3.84 0 01-.38-.58 1.71 1.71 0 010-1.42c0-.13.31-.68.49-.67s.2.45.26.66a1.43 1.43 0 00.15.27 5.93 5.93 0 002 1 3.94 3.94 0 00.93.2 3.13 3.13 0 00.27-.42 1.25 1.25 0 01.16-.22A3.65 3.65 0 0166.63 11a2.15 2.15 0 011.17.15 1.69 1.69 0 01.57.46m-7.14 5.86h.08c.35.15.35.77.26 1.06A4 4 0 0160 20.55a5.17 5.17 0 01-1.56.66 1.77 1.77 0 01-1.92-.7 4 4 0 01-.58-2 16.13 16.13 0 011.27-6.39c.1-.22.6-1.23 1.06-1.39s.67.37.71.78a5.52 5.52 0 01-.24 1.76c-.23 1-.56 2.49-.64 2.93a8.38 8.38 0 00-.2 1.95c0 .27.08.4.29.39s1.39-.61 2.1-.88a2.49 2.49 0 01.9-.18m-9.63-.89h.3c.49 0 1.3-.1 1.3-.1s-.09-.71-.16-1.17a6.34 6.34 0 00-.16-.74 2.55 2.55 0 00-.18-.53V14s-.39.76-.61 1.29-.26.73-.38 1a.52.52 0 00-.07.21v.11m-2.6.09l.41-.92a30.18 30.18 0 011.59-2.9c.44-.61 1.28-1.76 1.29-1.79a1.3 1.3 0 01.16-.54.73.73 0 01.54-.22.72.72 0 01.61.37 14.28 14.28 0 01.65 1.73 41.77 41.77 0 011 5.55c0 .36.16 2.27.17 2.69a2 2 0 01-.18 1 .39.39 0 01-.3.17 1.52 1.52 0 01-.62-.36 2.16 2.16 0 01-.73-1.2c-.08-.4-.17-1.54-.17-1.54l-1.7.07h-1l-.16.4a10.14 10.14 0 00-.36 1c-.13.44-.36 1.33-.42 1.46-.12.29-.22.46-.51.5a1.16 1.16 0 01-.75-.06 1.63 1.63 0 01-.65-1.11 5.43 5.43 0 01.59-2.58c.15-.44-.06-.58-.42-1.14a.92.92 0 01-.1-.2.37.37 0 01.12-.27H49m-9.7-5.59s0-.54-.07-.85a1.51 1.51 0 00-.23-.76c-.13-.22-.24-.35-.45-.39s-.41.14-.57.4a7.18 7.18 0 00-.56 1.4 9.39 9.39 0 00-.36 1.6 16.83 16.83 0 00-.15 4.17c0 .22.08.54.08.54s.26-.3.46-.5.46-.67.5-.73.24-.42.27-.49.32-.66.37-.8.23-.68.33-1a12.17 12.17 0 00.36-1.89 5.65 5.65 0 000-.8m-1.85 8s.1.19.18.32a2.49 2.49 0 002 1.23 5.09 5.09 0 002.69-.93c1.87-1.3 2.86-3.64 3.39-5.89a15.56 15.56 0 00-.09-8 11.92 11.92 0 00-2.34-4.44c-.31-.33-.79-.78-.93-1s-.18-.35 0-.47.73.14 1 .29a8.22 8.22 0 012.76 2.56c.19.27.92 1.48 1.06 1.74a12.8 12.8 0 011.48 4.64 15.54 15.54 0 01-.66 6.87 13.64 13.64 0 01-1.37 2.79c-.13.2-.91 1.24-1 1.34-.27.28-.93.86-1.24 1.11a6.79 6.79 0 01-5 1.82 4.94 4.94 0 01-2.64-1.11 5.45 5.45 0 01-1-1.16 5.28 5.28 0 00-.33-.54s-.11.06-.21.12a4.94 4.94 0 01-.64.3 4.22 4.22 0 01-3.81-.39 5.08 5.08 0 01-1.85-2.5 9.5 9.5 0 01-.31-4.28 16.88 16.88 0 012.55-6.95 13.08 13.08 0 013.28-3.45c.15-.11 1-.57 1.11-.65s.69-.27.91 0 .12.22 0 .39a4.85 4.85 0 01-.69.81c-.17.19-1.13 1.37-1.33 1.64s-1.2 1.77-1.33 2A17.1 17.1 0 0031 15.47a11 11 0 00.22 1.83 3.76 3.76 0 001.19 2.05 1.9 1.9 0 002 .13c.21-.08.5-.22.5-.22s-.23-.57-.37-1a11.83 11.83 0 01-.42-4.45A6.86 6.86 0 0135 11a7.53 7.53 0 011.58-1.93 4.43 4.43 0 012.54-1A2.11 2.11 0 0141 9a7.28 7.28 0 01.53 4.25A7.89 7.89 0 0138.9 18c-.49.42-1.45 1.13-1.45 1.13m59-6.8a.48.48 0 01.15 0 1.26 1.26 0 01.71 1 30.72 30.72 0 01.39 4.12c0 .66 0 1.31.07 2a7.71 7.71 0 010 1.8.9.9 0 01-.35.51 1.57 1.57 0 01-.92.09c-.63-.13-.83-.54-.92-1.16a31.77 31.77 0 010-5.61 13 13 0 01.41-2.25c.07-.19.23-.55.49-.5m-19.41 2.23s-.93.07-1.57.14a16.61 16.61 0 00-3.23.67c-.26.09-.8.31-.84.59a.9.9 0 00.32.73c.11.13.75.74.93.89a15.65 15.65 0 003.38 2.06c.39.16 1 .39 1 .39v-5.47m17 .72a7.32 7.32 0 01-.1 1.53 8 8 0 01-.28 1 9.86 9.86 0 01-.52 1 8.33 8.33 0 01-1.46 1.79 12 12 0 01-6.2 2.43 15.65 15.65 0 01-4.62-.13c-.53-.1-1.31-.28-1.31-.28v.54a2.32 2.32 0 01-.13.45.74.74 0 01-.56.4A1.74 1.74 0 0178 24a1.38 1.38 0 01-.74-1.18c-.07-.42-.14-1.15-.14-1.15l-.67-.32a17.27 17.27 0 01-2.58-1.59c-.22-.16-1.14-.93-1.34-1.12A7.58 7.58 0 0171 16.86a1.7 1.7 0 01-.16-1.59 4.31 4.31 0 012.24-1.73 18.16 18.16 0 013.1-.95 7.1 7.1 0 00.92-.17v-1.1c0-.29.21-2.14.28-2.54a4.16 4.16 0 01.36-1.24.32.32 0 01.45 0c.85.53 1.11 2.36 1.17 3.29 0 .57.06 1.42.06 1.42h1.57a14.62 14.62 0 011.83.2 13.55 13.55 0 013.15.89 3.2 3.2 0 011.59 1.62 1.63 1.63 0 01-.13 1.53 2.15 2.15 0 01-1.65 1.09 2.72 2.72 0 01-1.17-.27.2.2 0 010-.28s.37-.21.58-.32a1.74 1.74 0 00.26-.19c.17-.15.33-.31.31-.5s-.29-.41-.54-.51a19.28 19.28 0 00-4.68-.92h-1.08l.13 6.29.94.17c.24 0 1.24.13 1.51.13a13.71 13.71 0 006.17-1 6.34 6.34 0 002.14-1.51 4.43 4.43 0 001-3.27 8.54 8.54 0 00-1.81-3.91 21.55 21.55 0 00-8.42-5.91 27.09 27.09 0 00-9.36-2.11 15.94 15.94 0 00-3.6.27l-.39.11a1 1 0 00-.29.12l.11.05c.1 0 .51.07.73.11a.73.73 0 01.47.28.29.29 0 010 .35c-.21.25-1 .21-1.35.15s-.81-.17-.89-.48a1.46 1.46 0 01.27-1.07A2.59 2.59 0 0168.6 2a17.81 17.81 0 013.65-.57 21 21 0 017.09 1 32.92 32.92 0 014.41 1.71A34.2 34.2 0 0187 6c.26.17 1.78 1.28 2 1.48.49.4 1.13 1 1.6 1.44a14.78 14.78 0 012.56 3.34c.13.26.23.52.4.82a6.52 6.52 0 01.35.9c0 .17.1.43.11.44a6.83 6.83 0 01.09.86zm10.48.46h.1a7.75 7.75 0 012 .49 2.08 2.08 0 011.1 1 3.21 3.21 0 01.07 2.71 3.2 3.2 0 01-1.48 1.41 5.52 5.52 0 01-1.85.5 6.57 6.57 0 01-3.49-.62 4.18 4.18 0 01-1.76-1.51 1.47 1.47 0 01.07-1.61 3.14 3.14 0 012.6-.88 11.41 11.41 0 012.52.46 4.89 4.89 0 011 .44.33.33 0 01.1.31c-.15.44-1.24.68-1.55.73-.84.13-1.27-.19-2.23-.57a3.89 3.89 0 00-.79-.22c-.44 0-1 .08-1 .56 0 .24.24.47.46.56a3.55 3.55 0 001.43.31 7.55 7.55 0 004.38-1.08.68.68 0 00.33-.52s0-.26-.11-.29-.07-.08-.11-.13a1.92 1.92 0 00-.51-.29 12.46 12.46 0 00-3.12-.57c-.81-.07-2.1-.18-2.41-.23a3.5 3.5 0 01-.94-.23 1.14 1.14 0 01-.63-.71A2.26 2.26 0 0199 14.1c.81-1.17 2.72-1.61 4.14-1.79a9.62 9.62 0 015 .55c.21.11.32.22.27.44a1.09 1.09 0 01-.78.81 8.24 8.24 0 01-1.6.2 25.84 25.84 0 00-5.15.47 1 1 0 00-.41.17c-.24.26.46.34.61.37h.09l3.44.41m5.09 6.1c-.66-.24-.81-1.3-.84-1.84a16.78 16.78 0 011-5.83c.17-.47.41-1.23.93-1.19a1.2 1.2 0 01.82.59c.52.73 1.19 1.72 1.64 2.4s1 1.55 1.47 2.25a.8.8 0 00.17.22c.09.07.17.08.2 0a8.89 8.89 0 000-1.09c0-.28 0-.51-.08-.75a20.47 20.47 0 00-.49-2.38c-.2-.75-.44-1.54-.61-2.27a2.83 2.83 0 01-.11-.7c0-.33.21-.51.55-.38.67.23 1.56 1.69 1.82 2.19.08.17.43 1 .51 1.28a10.54 10.54 0 01.53 2.53 7 7 0 01-.37 3 3.12 3.12 0 01-.65 1 1.5 1.5 0 01-1.6.32 8.29 8.29 0 01-1.61-2.15c-.53-.92-1.43-2.71-1.57-2.91a.23.23 0 00-.14-.11s-.08.09-.09.16c-.09.53-.15 3-.15 3a13.17 13.17 0 01-.16 1.91c-.07.33-.15.6-.45.73a.71.71 0 01-.63 0m9.08-.15a3.43 3.43 0 01-.27-.27 5.49 5.49 0 01-.3-.48l-.1-.24A3 3 0 01118 19a7.86 7.86 0 01.5-1.35.5.5 0 000-.13c0-.1-.16-.81-.17-1s.25-.6.7-.64h.11c.18-.05.29-.39.39-.67l.35-1s-.57-.13-.87-.24a1.25 1.25 0 01-.75-.61c-.19-.36-.07-.57.31-.68.14-.05 1.25-.26 1.6-.31l1.25-.17c.37 0 2-.23 2.54-.22a2.07 2.07 0 011.79 1c.25.36.42.79 0 1a8.55 8.55 0 01-2.82.38h-1.23l-.39 1.28h2.12a2.91 2.91 0 01.47 0c.39.09.53.38.54.81s-.07.74-.47.81c-.21 0-2.54 0-2.85.08l-.41.05s-.17.44-.31.89-.28.93-.28.93h.22a3.15 3.15 0 00.46 0c.71-.13 1.76-.29 2.63-.43.47-.07.7-.1.94.21a1.28 1.28 0 01.34.83c0 .31-.22.51-.51.74a8.61 8.61 0 01-3.65 1.59 2.27 2.27 0 01-1.14-.13 1.59 1.59 0 01-.41-.19zm14.72-6.47a12.06 12.06 0 00-1.75 2.06c-.49.7-1 1.51-1.4 2.14a5.33 5.33 0 00-.38.66 1.67 1.67 0 00.61 0 5.09 5.09 0 001.95-.92 4.13 4.13 0 001.42-2.23 2.41 2.41 0 00-.14-1.65.22.22 0 00-.31 0m-4.77 7.36s-.19.55-.33 1c-.24.76-.77 2.79-.89 3.42-.19.94-.71 3.39-.74 3.45s-.06.09-.15.15-.3.08-.56-.06a2.59 2.59 0 01-.9-.69 4 4 0 01-.29-2.66 23.42 23.42 0 011.69-6.26.08.08 0 000-.09 5.06 5.06 0 01-.47-2.07 9.43 9.43 0 012.44-5.58c.1-.12.74-.88 1-.87s.34.35.3.63a8.6 8.6 0 01-1.25 2.65 7.79 7.79 0 00-.85 2 5.06 5.06 0 00-.13.78c0 .22.05.49.05.49s.82-1.14 1.36-1.85c.29-.38.5-.64.74-.91s1.21-1.28 1.48-1.54a5.39 5.39 0 011.46-1.1 1.27 1.27 0 011.43 0 3.29 3.29 0 011.18 2.42 5.84 5.84 0 01-.56 3.08 6.46 6.46 0 01-2.28 2.48 6.12 6.12 0 01-3.4 1.11h-.35" fill="#231f20" data-name="Layer 2"/></svg>